{"glyphs":{"0":{"ha":613,"x_min":31,"x_max":582,"o":"m 582 357 q 561 515 582 446 q 503 631 540 585 q 415 702 465 678 q 306 726 364 726 q 194 700 244 726 q 107 624 143 674 q 51 503 71 575 q 31 342 31 432 q 103 79 31 171 q 293 -12 175 -12 q 407 13 354 -12 q 499 85 460 38 q 560 201 538 132 q 582 357 582 269 m 460 350 q 446 230 460 279 q 410 150 432 181 q 358 106 388 119 q 300 92 329 92 q 244 105 271 92 q 197 148 218 118 q 164 226 176 178 q 151 346 151 275 q 164 473 151 421 q 197 557 176 525 q 245 603 218 589 q 300 618 272 618 q 359 603 331 618 q 410 557 388 589 q 446 474 432 525 q 460 350 460 424 "},"1":{"ha":356,"x_min":31,"x_max":304,"o":"m 304 711 l 194 711 q 146 665 171 688 q 93 626 122 646 q 31 594 64 607 l 31 490 q 117 517 75 500 q 183 550 160 535 l 183 0 l 304 0 l 304 711 "},"2":{"ha":508,"x_min":31,"x_max":499,"o":"m 350 521 q 326 447 350 482 q 267 377 303 411 q 190 309 232 343 q 113 240 149 275 q 54 166 78 204 q 31 86 31 128 l 31 0 l 499 0 l 499 106 l 161 106 q 200 170 172 140 q 263 229 228 200 q 334 289 297 258 q 401 356 371 319 q 451 434 432 392 q 471 529 471 476 q 455 609 471 572 q 410 672 439 646 q 340 712 381 697 q 249 726 299 726 q 137 706 186 726 q 58 654 88 685 l 58 553 q 100 581 76 569 q 149 601 124 593 q 201 614 175 610 q 249 618 226 618 q 319 597 288 618 q 350 521 350 576 "},"3":{"ha":522,"x_min":51,"x_max":492,"o":"m 492 201 q 474 271 492 240 q 430 322 457 301 q 369 356 403 343 q 301 372 335 368 q 417 426 369 385 q 464 547 464 468 q 444 621 464 588 q 394 678 425 654 q 325 714 364 701 q 247 726 286 726 q 155 711 199 726 q 79 675 111 696 l 79 572 q 155 607 111 596 q 247 618 199 618 q 281 615 264 618 q 313 601 299 611 q 335 572 326 590 q 343 525 343 554 q 333 486 343 503 q 308 458 324 469 q 273 438 293 446 q 232 426 253 431 q 121 417 183 415 l 121 313 q 238 306 190 313 q 315 285 286 300 q 358 249 344 271 q 371 194 371 226 q 356 146 371 165 q 320 115 342 126 q 272 97 299 103 q 224 92 246 92 q 131 104 178 92 q 51 144 85 117 l 51 35 q 128 3 81 18 q 224 -12 175 -12 q 421 47 350 -12 q 492 201 492 106 "},"4":{"ha":538,"x_min":10,"x_max":528,"o":"m 331 711 l 10 258 l 10 163 l 322 163 l 322 0 l 443 0 l 443 163 l 528 163 l 528 271 l 443 271 l 443 711 l 331 711 m 156 271 l 322 510 l 322 271 l 156 271 "},"5":{"ha":494,"x_min":51,"x_max":464,"o":"m 464 218 q 444 316 464 274 q 391 387 425 358 q 311 429 357 415 q 214 443 265 443 l 172 443 l 172 604 l 417 604 l 417 711 l 51 711 l 51 324 q 94 333 69 328 q 142 340 114 336 q 203 343 171 343 q 309 304 275 343 q 343 213 343 265 q 331 155 343 178 q 299 118 319 132 q 252 99 279 104 q 193 93 225 93 q 140 99 165 93 q 94 114 114 106 q 51 136 71 124 l 51 21 q 109 -1 74 10 q 193 -12 144 -12 q 395 51 326 -12 q 464 218 464 114 "},"6":{"ha":543,"x_min":31,"x_max":513,"o":"m 31 310 q 49 172 31 232 q 101 72 68 113 q 177 9 133 31 q 272 -12 221 -12 q 367 6 322 -12 q 443 56 411 24 q 494 131 475 88 q 513 228 513 175 q 494 321 513 278 q 444 395 475 364 q 374 444 414 426 q 290 461 333 461 q 220 452 257 461 q 157 417 183 443 q 207 562 164 507 q 329 618 250 617 q 383 615 357 618 q 428 608 408 613 q 472 599 451 603 l 472 706 q 442 715 460 711 q 404 721 424 718 q 365 725 385 724 q 329 726 346 726 q 209 701 264 726 q 115 623 154 675 q 53 493 75 571 q 31 310 31 415 m 158 235 q 165 274 158 253 q 185 313 171 294 q 220 343 199 331 q 272 356 242 356 q 316 349 294 356 q 354 328 338 343 q 381 289 371 314 q 392 228 392 264 q 381 170 392 196 q 352 127 369 144 q 314 101 335 110 q 272 92 293 92 q 231 99 251 92 q 195 124 211 107 q 169 169 179 142 q 158 235 158 196 "},"7":{"ha":503,"x_min":10,"x_max":493,"o":"m 493 710 l 10 711 l 10 604 l 347 604 l 118 0 l 243 0 l 493 668 l 493 710 "},"8":{"ha":529,"x_min":31,"x_max":499,"o":"m 58 535 q 76 452 58 492 q 135 383 94 413 q 31 196 31 314 q 91 44 31 101 q 267 -12 151 -12 q 437 44 375 -12 q 499 196 499 101 q 472 303 499 253 q 394 383 444 353 q 451 450 431 414 q 471 535 471 486 q 455 604 471 569 q 411 666 439 639 q 345 710 383 693 q 264 726 307 726 q 180 710 218 726 q 115 667 142 694 q 73 606 88 640 q 58 535 58 572 m 264 329 q 346 296 314 329 q 378 210 378 263 q 343 119 378 147 q 264 92 308 92 q 185 120 219 92 q 151 211 151 149 q 161 264 151 242 q 187 301 171 286 q 223 322 203 315 q 264 329 243 329 m 179 526 q 183 556 179 540 q 197 586 188 572 q 222 609 206 600 q 264 618 239 618 q 302 609 286 618 q 329 587 318 600 q 346 557 340 574 q 351 526 351 540 q 322 459 351 482 q 264 436 293 436 q 203 459 228 436 q 179 526 179 482 "},"9":{"ha":542,"x_min":31,"x_max":511,"o":"m 511 396 q 494 530 511 469 q 445 634 476 590 q 369 702 414 678 q 269 726 325 726 q 178 709 221 726 q 102 660 135 692 q 50 583 69 628 q 31 485 31 539 q 48 394 31 436 q 96 319 65 351 q 167 269 126 288 q 251 250 207 250 q 322 259 285 250 q 385 294 360 268 q 358 197 376 236 q 314 134 339 157 q 260 101 289 111 q 200 92 231 92 q 149 94 172 92 q 108 101 126 97 q 71 113 88 107 l 71 6 q 133 -8 96 -4 q 201 -12 169 -12 q 430 91 349 -12 q 511 396 511 194 m 385 472 q 379 441 385 461 q 360 401 374 421 q 325 368 347 382 q 269 354 303 354 q 177 392 204 354 q 150 485 150 429 q 158 531 150 507 q 182 574 167 556 q 219 606 197 593 q 269 618 242 618 q 324 606 301 618 q 359 572 346 593 q 378 525 372 551 q 385 472 385 499 "}," ":{"ha":447,"x_min":0,"x_max":0,"o":""},"#":{"ha":808,"x_min":51,"x_max":757,"o":"m 335 414 l 489 414 l 460 307 l 306 307 l 335 414 m 108 414 l 214 414 l 185 307 l 79 307 l 51 201 l 157 201 l 103 0 l 222 0 l 278 201 l 432 201 l 378 0 l 497 0 l 551 201 l 669 201 l 700 307 l 581 307 l 610 414 l 728 414 l 757 518 l 638 518 l 690 711 l 569 711 l 517 518 l 363 518 l 415 711 l 294 711 l 243 518 l 135 518 l 108 414 "},"$":{"ha":585,"x_min":51,"x_max":533,"o":"m 506 575 l 506 675 q 468 694 490 685 q 422 710 449 703 q 358 722 394 718 l 358 828 l 240 828 l 240 721 q 167 699 201 714 q 106 662 132 685 q 66 609 81 639 q 51 543 51 579 q 78 444 51 481 q 145 383 106 407 q 232 346 185 360 q 319 315 279 332 q 385 275 358 299 q 413 210 413 251 q 379 126 413 161 q 269 92 346 92 q 191 101 229 92 q 121 121 153 110 q 51 150 85 133 l 51 50 q 103 19 74 33 q 162 -1 128 8 q 240 -12 196 -11 l 240 -115 l 357 -115 l 357 -6 q 441 24 407 3 q 496 75 475 46 q 525 139 517 104 q 533 210 533 174 q 506 315 533 275 q 440 382 479 356 q 353 424 400 408 q 266 456 306 440 q 199 490 226 471 q 172 543 172 510 q 184 574 172 560 q 215 598 196 588 q 254 614 233 608 q 294 619 275 619 q 381 613 343 619 q 447 597 419 606 q 506 575 479 588 "},"%":{"ha":833,"x_min":51,"x_max":782,"o":"m 628 -18 q 738 40 694 -18 q 782 193 782 97 q 742 347 782 289 q 635 404 701 404 q 520 343 561 404 q 479 183 479 282 q 519 37 479 92 q 628 -18 560 -18 m 667 188 q 656 108 667 131 q 631 85 646 85 q 606 108 615 85 q 597 188 597 132 q 606 274 597 249 q 631 299 615 299 q 667 188 667 299 m 199 388 q 262 403 233 388 q 311 448 290 419 q 343 516 332 476 q 354 604 354 556 q 314 756 354 700 q 206 811 274 811 q 93 752 135 811 q 51 594 51 693 q 90 445 51 503 q 199 388 129 388 m 239 599 q 236 543 239 564 q 228 511 233 522 q 217 497 224 500 q 204 493 211 493 q 191 497 197 493 q 180 510 185 500 q 172 542 175 521 q 169 597 169 563 q 178 685 169 664 q 204 706 188 706 q 228 685 218 706 q 239 599 239 664 m 263 0 l 751 867 l 619 867 l 132 0 l 263 0 "},"&":{"ha":807,"x_min":51,"x_max":756,"o":"m 399 561 q 376 504 399 532 q 300 454 353 476 q 259 494 276 469 q 242 554 242 518 q 262 595 242 575 q 326 615 282 615 q 375 601 351 615 q 399 561 399 588 m 297 92 q 251 96 274 92 q 212 110 229 100 q 183 140 194 121 q 172 192 172 160 q 181 249 172 226 q 206 289 190 272 q 242 317 222 306 q 285 339 263 328 q 349 303 322 322 q 396 260 375 283 q 435 212 417 238 q 474 157 453 186 q 396 108 433 125 q 297 92 358 92 m 756 0 l 756 106 q 672 119 703 106 q 619 160 640 133 q 669 244 647 199 q 707 337 692 289 q 731 431 722 385 q 743 518 740 478 l 619 518 l 618 481 q 601 373 615 428 q 549 251 586 318 q 518 291 532 274 q 488 325 504 308 q 448 359 471 342 q 392 399 425 376 q 486 468 453 432 q 519 568 519 504 q 504 628 519 600 q 463 678 489 657 q 402 713 438 700 q 326 725 367 725 q 244 713 282 725 q 179 677 207 700 q 136 623 151 654 q 121 554 121 592 q 148 463 121 501 q 207 404 175 425 q 91 319 131 369 q 51 192 51 268 q 69 99 51 138 q 120 36 88 61 q 198 -1 153 11 q 297 -12 243 -12 q 433 9 374 -12 q 544 75 492 31 q 756 0 611 0 "},"’":{"ha":225,"x_min":-57,"x_max":174,"o":"m 51 767 l 51 668 q 34 604 51 635 q -3 550 17 574 q -57 500 -28 524 l 63 500 q 118 549 93 522 q 156 602 139 572 q 174 668 174 632 l 174 767 l 51 767 "},"(":{"ha":343,"x_min":31,"x_max":333,"o":"m 207 -194 l 333 -194 q 199 19 251 -97 q 146 275 146 135 q 198 533 146 408 q 332 758 250 658 l 207 758 q 78 540 125 661 q 31 275 31 418 q 75 22 31 135 q 207 -194 119 -90 "},")":{"ha":343,"x_min":10,"x_max":313,"o":"m 10 -194 l 135 -194 q 265 14 217 -103 q 313 275 313 131 q 265 540 313 418 q 135 758 217 661 l 10 758 q 144 536 92 658 q 196 274 196 414 q 144 20 196 138 q 10 -194 92 -97 "},"*":{"ha":401,"x_min":51,"x_max":350,"o":"m 51 550 l 97 488 l 176 563 l 161 453 l 239 453 l 222 564 l 304 488 l 350 550 l 236 608 l 350 667 l 304 729 l 222 653 l 239 764 l 161 764 l 176 654 l 97 729 l 51 667 l 164 608 l 51 550 "},"+":{"ha":557,"x_min":51,"x_max":506,"o":"m 225 533 l 225 353 l 51 353 l 51 247 l 225 247 l 225 83 l 332 83 l 332 247 l 506 247 l 506 353 l 332 353 l 332 533 l 225 533 "},",":{"ha":225,"x_min":-57,"x_max":174,"o":"m 51 114 l 51 15 q 34 -54 51 -24 q -3 -107 17 -85 q -57 -151 -28 -132 l 63 -151 q 118 -110 93 -135 q 156 -58 139 -89 q 174 15 174 -26 l 174 114 l 51 114 "},"-":{"ha":411,"x_min":51,"x_max":360,"o":"m 51 264 l 360 264 l 360 364 l 51 364 l 51 264 "},".":{"ha":224,"x_min":51,"x_max":172,"o":"m 51 0 l 172 0 l 172 114 l 51 114 l 51 0 "},"/":{"ha":369,"x_min":10,"x_max":360,"o":"m 126 0 l 360 867 l 243 867 l 10 0 l 126 0 "},":":{"ha":224,"x_min":51,"x_max":172,"o":"m 51 397 l 172 397 l 172 517 l 51 517 l 51 397 m 51 0 l 172 0 l 172 119 l 51 119 l 51 0 "},";":{"ha":225,"x_min":-57,"x_max":174,"o":"m 51 396 l 174 396 l 174 517 l 51 517 l 51 396 m 51 118 l 51 15 q 34 -48 51 -18 q -3 -101 17 -78 q -57 -151 -28 -128 l 63 -151 q 118 -104 93 -129 q 156 -51 139 -82 q 174 15 174 -21 l 174 118 l 51 118 "},"<":{"ha":539,"x_min":31,"x_max":529,"o":"m 529 88 l 201 246 l 529 429 l 529 550 l 31 274 l 31 215 l 529 -29 l 529 88 "},"=":{"ha":557,"x_min":51,"x_max":506,"o":"m 51 153 l 506 153 l 506 257 l 51 257 l 51 153 m 51 329 l 506 329 l 506 433 l 51 433 l 51 329 "},">":{"ha":539,"x_min":10,"x_max":508,"o":"m 10 -29 l 508 215 l 508 274 l 10 550 l 10 429 l 338 246 l 10 88 l 10 -29 "},"?":{"ha":474,"x_min":51,"x_max":422,"o":"m 135 0 l 256 0 l 256 119 l 135 119 l 135 0 m 256 192 l 256 308 q 281 361 256 339 q 338 408 307 383 q 396 468 369 433 q 422 557 422 503 q 406 626 422 594 q 361 679 389 657 q 298 714 333 701 q 224 726 263 726 q 144 715 176 726 q 90 690 111 704 q 51 656 65 675 l 51 556 q 96 586 71 572 q 147 608 117 597 q 214 618 176 618 q 277 601 253 618 q 301 549 301 585 q 275 488 301 514 q 217 438 249 463 q 160 384 186 413 q 135 315 135 356 l 135 192 l 256 192 "},"@":{"ha":908,"x_min":51,"x_max":857,"o":"m 536 147 q 572 89 547 111 q 653 67 596 67 q 727 87 690 67 q 792 142 764 107 q 839 226 821 178 q 857 329 857 274 q 826 463 857 401 q 743 571 796 525 q 619 642 690 617 q 468 668 549 668 q 309 638 385 668 q 176 553 233 607 q 85 428 119 500 q 51 275 51 357 q 83 127 51 194 q 169 10 115 60 q 297 -67 224 -39 q 453 -94 369 -94 q 556 -83 506 -94 q 653 -57 606 -72 l 653 15 q 559 -12 611 0 q 453 -25 507 -25 q 317 1 376 -25 q 217 70 258 28 q 156 166 176 113 q 135 275 135 219 q 158 384 135 326 q 226 489 182 442 q 331 567 269 536 q 468 599 393 599 q 600 572 543 599 q 695 504 657 544 q 753 417 733 464 q 774 329 774 369 q 766 274 774 304 q 744 217 758 243 q 708 174 729 192 q 658 156 686 156 q 633 172 640 156 q 624 207 626 188 q 624 260 621 231 l 665 488 l 565 488 l 554 432 q 509 475 543 456 q 436 494 475 494 q 357 478 396 494 q 286 433 318 463 q 235 363 254 404 q 215 271 215 321 q 231 184 215 222 q 272 119 246 146 q 331 80 297 93 q 400 67 364 67 q 488 90 458 67 q 536 147 518 114 m 450 397 q 506 324 506 397 q 501 267 506 294 q 484 219 496 240 q 453 186 472 199 q 406 174 433 174 q 385 178 397 174 q 363 192 374 182 q 345 222 353 203 q 338 271 338 242 q 344 319 338 296 q 366 359 351 342 q 401 387 381 376 q 450 397 422 397 "},"A":{"ha":656,"x_min":10,"x_max":646,"o":"m 233 285 l 328 546 l 418 285 l 233 285 m 382 711 l 272 711 l 10 0 l 128 0 l 196 178 l 456 178 l 522 0 l 646 0 l 382 711 "},"B":{"ha":571,"x_min":51,"x_max":519,"o":"m 51 0 l 263 0 q 359 14 313 0 q 441 55 406 28 q 498 121 476 82 q 519 210 519 160 q 503 284 519 253 q 460 335 486 315 q 400 367 433 356 q 335 381 367 378 q 388 396 363 385 q 434 427 414 407 q 466 474 454 447 q 478 536 478 501 q 463 606 478 574 q 421 661 449 638 q 353 698 393 685 q 264 711 314 711 l 51 711 l 51 0 m 172 604 l 243 604 q 284 601 264 604 q 320 588 304 597 q 347 563 336 578 q 357 522 357 547 q 323 452 357 475 q 231 429 289 429 l 172 429 l 172 604 m 172 322 l 243 322 q 363 290 326 322 q 399 210 399 257 q 359 135 399 165 q 254 106 319 106 l 172 106 l 172 322 "},"C":{"ha":611,"x_min":31,"x_max":601,"o":"m 601 38 l 560 140 q 479 106 519 119 q 386 92 439 92 q 290 110 333 92 q 217 162 247 128 q 169 243 186 196 q 153 349 153 290 q 165 438 153 390 q 206 526 178 486 q 279 592 235 565 q 386 618 324 618 q 475 611 431 618 q 560 585 519 604 l 601 689 q 512 715 568 704 q 386 726 456 726 q 245 699 310 726 q 133 623 181 672 q 58 503 85 574 q 31 349 31 433 q 56 203 31 269 q 126 88 81 136 q 235 14 172 40 q 376 -12 299 -12 q 502 1 443 -12 q 601 38 561 14 "},"D":{"ha":675,"x_min":51,"x_max":644,"o":"m 51 0 l 247 0 q 403 24 331 0 q 530 96 476 49 q 614 210 583 143 q 644 363 644 278 q 617 520 644 454 q 540 628 590 586 q 417 691 489 671 q 256 711 344 711 l 51 711 l 51 0 m 172 604 l 256 604 q 459 542 394 604 q 524 363 524 479 q 506 260 524 307 q 452 178 488 213 q 365 125 417 144 q 247 106 314 106 l 172 106 l 172 604 "},"E":{"ha":501,"x_min":51,"x_max":450,"o":"m 450 106 l 172 106 l 172 301 l 422 301 l 422 408 l 172 408 l 172 604 l 450 604 l 450 711 l 51 711 l 51 0 l 450 0 l 450 106 "},"F":{"ha":460,"x_min":51,"x_max":450,"o":"m 172 301 l 422 301 l 422 408 l 172 408 l 172 604 l 450 604 l 450 711 l 51 711 l 51 0 l 172 0 l 172 301 "},"G":{"ha":689,"x_min":31,"x_max":638,"o":"m 638 381 l 364 381 l 364 275 l 517 275 l 517 115 q 485 103 500 108 q 456 96 471 99 q 425 92 442 93 q 386 92 408 92 q 283 113 326 92 q 210 168 239 133 q 166 248 181 203 q 151 342 151 293 q 167 440 151 390 q 213 528 182 489 q 291 593 244 568 q 400 618 338 618 q 484 611 446 618 q 550 595 522 604 q 597 576 578 586 q 624 558 615 565 l 624 675 q 574 700 604 689 q 508 718 547 710 q 413 726 468 726 q 259 697 329 726 q 138 615 189 667 q 59 493 88 564 q 31 342 31 422 q 58 194 31 260 q 132 83 85 129 q 243 13 179 38 q 381 -12 307 -12 q 516 0 447 -12 q 638 43 585 13 l 638 381 "},"H":{"ha":654,"x_min":51,"x_max":603,"o":"m 603 711 l 481 711 l 482 422 l 172 422 l 172 711 l 51 711 l 51 0 l 172 0 l 172 315 l 482 315 l 482 0 l 603 0 l 603 711 "},"I":{"ha":224,"x_min":51,"x_max":172,"o":"m 51 0 l 172 0 l 172 711 l 51 711 l 51 0 "},"J":{"ha":396,"x_min":10,"x_max":344,"o":"m 344 711 l 222 711 l 222 254 q 199 130 222 168 q 131 92 175 92 q 101 94 115 92 q 76 100 88 97 q 51 108 63 104 l 10 15 q 40 0 24 6 q 76 -10 56 -6 q 124 -14 97 -14 q 208 1 168 -14 q 278 49 249 17 q 326 132 308 81 q 344 254 344 183 l 344 711 "},"K":{"ha":589,"x_min":51,"x_max":579,"o":"m 579 0 l 364 457 l 567 711 l 421 711 l 172 404 l 172 711 l 51 711 l 51 0 l 172 0 l 172 224 l 283 360 l 450 0 l 579 0 "},"L":{"ha":460,"x_min":51,"x_max":450,"o":"m 450 106 l 172 106 l 172 711 l 51 711 l 51 0 l 450 0 l 450 106 "},"M":{"ha":849,"x_min":51,"x_max":797,"o":"m 797 711 l 654 711 l 418 189 l 193 711 l 51 711 l 51 0 l 172 0 l 172 482 l 383 0 l 450 0 l 676 489 l 676 0 l 797 0 l 797 711 "},"N":{"ha":696,"x_min":51,"x_max":644,"o":"m 644 711 l 522 711 l 522 189 l 185 711 l 51 711 l 51 0 l 172 0 l 172 515 l 511 0 l 644 0 l 644 711 "},"O":{"ha":751,"x_min":31,"x_max":721,"o":"m 367 92 q 283 108 322 92 q 215 156 244 124 q 169 235 186 188 q 151 346 151 283 q 169 465 151 414 q 217 551 186 517 q 290 601 247 585 q 381 618 332 618 q 465 601 425 618 q 535 553 504 585 q 583 472 565 521 q 600 361 600 424 q 582 241 600 292 q 533 157 564 190 q 458 108 501 124 q 367 92 415 92 m 367 -12 q 516 14 450 -12 q 627 90 582 40 q 697 208 672 139 q 721 361 721 276 q 697 507 721 440 q 628 622 672 574 q 520 699 583 671 q 378 726 457 726 q 232 699 296 726 q 123 621 168 671 q 54 501 78 571 q 31 346 31 431 q 54 201 31 267 q 122 88 78 135 q 227 14 165 40 q 367 -12 289 -12 "},"P":{"ha":536,"x_min":51,"x_max":506,"o":"m 172 247 l 235 247 q 342 262 293 247 q 428 306 392 276 q 485 381 464 336 q 506 488 506 426 q 487 587 506 544 q 434 657 468 629 q 354 698 400 685 q 254 711 308 711 l 51 711 l 51 0 l 172 0 l 172 247 m 172 604 l 254 604 q 321 595 296 604 q 360 571 346 586 q 380 534 375 556 q 385 486 385 513 q 351 390 385 428 q 235 353 317 353 l 172 353 l 172 604 "},"Q":{"ha":751,"x_min":31,"x_max":721,"o":"m 367 92 q 281 108 321 92 q 213 156 242 124 q 168 235 185 188 q 151 346 151 283 q 169 465 151 414 q 217 551 186 517 q 287 601 247 585 q 371 618 326 618 q 461 601 419 618 q 534 553 503 585 q 583 472 565 521 q 600 361 600 424 q 582 241 600 292 q 532 157 564 190 q 458 108 500 124 q 367 92 415 92 m 357 -12 q 408 -11 382 -12 q 457 -4 435 -10 q 485 -16 469 -8 q 515 -35 501 -24 q 537 -62 528 -47 q 546 -96 546 -76 l 661 -96 q 651 -49 661 -69 q 624 -12 640 -28 q 589 13 608 3 q 553 31 569 24 q 674 157 628 72 q 721 361 721 242 q 697 507 721 440 q 627 622 672 574 q 517 699 582 671 q 371 726 451 726 q 232 699 294 726 q 124 621 169 671 q 55 501 79 571 q 31 346 31 431 q 54 201 31 267 q 121 88 78 135 q 224 14 164 40 q 357 -12 285 -12 "},"R":{"ha":607,"x_min":51,"x_max":597,"o":"m 597 0 l 475 196 q 412 292 443 247 q 349 347 381 336 q 404 363 376 351 q 455 396 432 375 q 492 445 478 417 q 507 510 507 474 q 487 598 507 560 q 434 661 467 636 q 360 699 401 686 q 274 711 318 711 l 51 711 l 51 0 l 172 0 l 172 288 l 218 288 q 281 263 247 288 q 353 175 314 239 l 458 0 l 597 0 m 172 604 l 257 604 q 354 577 324 604 q 385 510 385 550 q 351 425 385 453 q 257 396 318 397 l 172 394 l 172 604 "},"S":{"ha":585,"x_min":51,"x_max":533,"o":"m 506 571 l 506 675 q 456 700 486 689 q 389 717 429 710 q 292 725 349 725 q 201 712 244 725 q 124 674 157 699 q 71 617 90 650 q 51 543 51 583 q 78 443 51 481 q 145 383 106 406 q 232 346 185 360 q 319 316 279 332 q 385 276 358 300 q 413 210 413 251 q 369 119 413 144 q 254 93 325 93 q 177 102 214 93 q 113 122 140 111 q 51 153 79 136 l 51 50 q 108 18 75 32 q 177 -3 136 7 q 272 -12 218 -12 q 394 5 344 -12 q 476 53 444 22 q 520 124 507 83 q 533 210 533 164 q 507 316 533 275 q 440 383 481 357 q 353 424 400 408 q 267 454 307 439 q 200 489 226 469 q 174 543 174 508 q 208 597 174 575 q 292 618 243 618 q 379 610 340 618 q 446 594 418 603 q 506 571 479 583 "},"T":{"ha":522,"x_min":10,"x_max":513,"o":"m 513 711 l 10 711 l 10 604 l 204 604 l 204 0 l 325 0 l 325 604 l 513 604 l 513 711 "},"U":{"ha":654,"x_min":51,"x_max":603,"o":"m 603 711 l 482 711 l 482 271 q 469 185 482 219 q 433 131 456 151 q 382 101 411 110 q 319 92 353 92 q 210 133 249 92 q 172 279 172 175 l 172 711 l 51 711 l 51 274 q 123 56 51 125 q 319 -12 194 -12 q 526 58 450 -12 q 603 283 603 128 l 603 711 "},"V":{"ha":656,"x_min":10,"x_max":646,"o":"m 328 171 l 132 711 l 10 711 l 272 0 l 382 0 l 646 711 l 522 711 l 328 171 "},"W":{"ha":944,"x_min":10,"x_max":935,"o":"m 813 711 l 654 186 l 521 711 l 438 711 l 278 183 l 132 711 l 10 711 l 214 0 l 340 0 l 476 479 l 589 0 l 715 0 l 935 711 l 813 711 "},"X":{"ha":631,"x_min":10,"x_max":621,"o":"m 386 356 l 621 711 l 478 711 l 315 460 l 167 711 l 25 711 l 243 356 l 10 0 l 151 0 l 315 251 l 478 0 l 621 0 l 386 356 "},"Y":{"ha":594,"x_min":10,"x_max":585,"o":"m 458 711 l 290 389 l 135 711 l 10 711 l 228 258 l 228 0 l 350 0 l 350 261 l 585 711 l 458 711 "},"Z":{"ha":571,"x_min":10,"x_max":561,"o":"m 561 711 l 38 711 l 38 604 l 382 604 l 10 44 l 10 0 l 547 0 l 547 106 l 189 106 l 561 665 l 561 711 "},"[":{"ha":310,"x_min":51,"x_max":300,"o":"m 51 -194 l 300 -194 l 300 -89 l 164 -89 l 164 654 l 300 654 l 300 760 l 51 760 l 51 -194 "},"\\":{"ha":369,"x_min":10,"x_max":360,"o":"m 360 0 l 126 867 l 10 867 l 243 0 l 360 0 "},"]":{"ha":310,"x_min":10,"x_max":258,"o":"m 258 760 l 10 760 l 10 654 l 146 654 l 146 -89 l 10 -89 l 10 -194 l 258 -194 l 258 760 "},"^":{"ha":690,"x_min":51,"x_max":639,"o":"m 171 268 l 332 592 l 518 268 l 639 268 l 360 760 l 300 760 l 51 268 l 171 268 "},"_":{"ha":557,"x_min":51,"x_max":506,"o":"m 51 -68 l 506 -68 l 506 31 l 51 31 l 51 -68 "},"‘":{"ha":224,"x_min":51,"x_max":283,"o":"m 172 500 l 172 599 q 190 663 172 632 q 228 717 207 693 q 283 767 253 743 l 161 767 q 106 719 131 744 q 68 665 85 696 q 51 599 51 635 l 51 500 l 172 500 "},"a":{"ha":532,"x_min":50,"x_max":481,"o":"m 250 85 q 193 97 218 85 q 168 149 168 110 q 176 176 168 164 q 197 195 185 188 q 225 207 210 203 q 254 211 240 211 q 331 218 296 211 q 365 226 349 222 l 365 142 q 315 101 349 118 q 250 85 282 85 m 481 0 l 481 333 q 462 424 481 385 q 413 488 443 463 q 342 525 382 513 q 258 538 301 538 q 158 520 197 538 q 94 483 118 503 q 51 429 67 458 l 85 354 q 128 396 103 378 q 181 425 149 411 q 256 439 213 439 q 297 433 276 439 q 331 414 317 428 q 355 376 346 400 q 364 314 364 351 q 335 303 353 308 q 294 296 319 299 q 232 293 268 293 q 175 288 206 293 q 118 266 144 282 q 73 222 92 250 q 53 149 54 194 q 99 33 50 76 q 222 -10 149 -10 q 271 -1 249 -10 q 310 19 293 7 q 342 46 328 32 q 365 71 356 60 l 365 0 l 481 0 "},"b":{"ha":599,"x_min":51,"x_max":568,"o":"m 165 0 l 165 85 q 197 39 176 58 q 242 7 214 21 q 313 -7 271 -7 q 399 8 354 -7 q 482 57 444 24 q 544 144 519 90 q 568 274 568 197 q 542 393 568 343 q 478 476 517 443 q 397 524 440 508 q 317 540 353 540 q 246 526 275 540 q 199 493 217 511 q 165 446 178 472 l 165 753 l 51 753 l 51 0 l 165 0 m 165 157 l 165 375 q 207 407 183 392 q 252 430 226 419 q 308 440 278 440 q 360 428 335 440 q 407 395 386 417 q 441 343 428 374 q 454 274 454 313 q 442 190 454 225 q 408 134 429 156 q 361 103 388 113 q 308 93 335 93 q 252 103 278 93 q 207 125 226 113 q 165 157 183 139 "},"c":{"ha":465,"x_min":31,"x_max":456,"o":"m 456 38 l 410 138 q 378 114 394 124 q 343 99 363 106 q 301 92 324 92 q 188 134 231 92 q 144 251 144 176 q 156 322 144 288 q 187 381 167 356 q 235 423 207 407 q 300 439 264 439 q 342 431 322 439 q 376 415 361 424 q 410 393 393 406 l 456 492 q 408 514 433 504 q 358 530 386 522 q 299 538 331 538 q 194 517 243 538 q 109 458 146 496 q 51 368 72 421 q 31 251 31 315 q 51 140 31 188 q 109 59 72 92 q 194 10 146 26 q 296 -7 242 -7 q 353 0 325 -7 q 406 15 382 7 q 456 38 432 25 "},"d":{"ha":599,"x_min":31,"x_max":547,"o":"m 433 0 l 547 0 l 547 753 l 433 753 l 433 446 q 393 492 417 471 q 342 523 372 508 q 269 538 311 538 q 191 520 233 538 q 113 469 149 503 q 54 387 78 436 q 31 274 31 338 q 53 150 31 203 q 110 63 75 97 q 189 12 146 29 q 274 -6 232 -6 q 345 8 315 -6 q 394 39 375 22 q 433 85 418 58 l 433 0 m 433 375 l 433 157 q 393 124 417 139 q 345 101 374 111 q 281 92 317 92 q 230 104 254 92 q 187 140 206 117 q 156 197 168 163 q 144 274 144 231 q 156 338 144 308 q 188 390 168 368 q 231 426 207 413 q 282 439 256 439 q 347 428 318 439 q 394 407 375 418 q 433 375 417 392 "},"e":{"ha":528,"x_min":31,"x_max":497,"o":"m 497 225 l 496 281 q 437 468 493 399 q 271 538 381 538 q 173 515 217 538 q 97 454 129 493 q 48 365 65 415 q 31 257 31 314 q 49 140 31 189 q 102 58 68 90 q 183 10 136 25 q 285 -6 229 -6 q 362 3 328 -6 q 419 24 396 13 q 468 54 447 38 l 428 142 q 397 117 415 128 q 356 99 382 107 q 293 92 331 92 q 186 128 226 92 q 146 225 146 165 l 497 225 m 378 325 l 150 325 q 163 366 153 346 q 190 402 174 386 q 226 428 206 418 q 271 439 247 439 q 349 403 322 439 q 378 325 376 367 "},"f":{"ha":363,"x_min":10,"x_max":353,"o":"m 10 419 l 100 419 l 100 0 l 214 0 l 214 419 l 353 419 l 353 519 l 214 519 l 214 576 q 221 624 214 606 q 238 651 228 642 q 262 665 249 661 q 288 668 275 668 q 311 665 300 668 q 332 658 322 661 q 353 649 343 653 l 353 753 q 332 760 346 756 q 303 765 321 763 q 261 767 285 767 q 185 752 215 767 q 137 712 156 738 q 110 651 118 686 q 100 576 101 617 l 99 519 l 10 519 l 10 419 "},"g":{"ha":599,"x_min":31,"x_max":547,"o":"m 433 374 l 433 154 q 393 122 417 136 q 344 100 374 110 q 279 90 315 90 q 228 104 253 90 q 185 142 204 118 q 156 195 167 165 q 144 257 144 225 q 156 332 144 299 q 185 389 167 365 q 228 425 204 413 q 279 438 253 438 q 344 427 315 438 q 393 406 374 417 q 433 374 417 390 m 432 531 l 433 446 q 397 492 419 471 q 349 523 378 508 q 279 538 321 538 q 194 520 238 538 q 113 468 150 503 q 53 381 76 433 q 31 257 31 328 q 54 142 31 192 q 115 60 78 93 q 196 10 151 26 q 282 -7 240 -7 q 352 7 324 -7 q 399 39 381 21 q 433 85 419 58 l 433 17 q 419 -62 433 -32 q 382 -110 406 -93 q 326 -135 358 -128 q 258 -142 294 -142 q 196 -134 222 -142 q 151 -115 169 -126 q 115 -87 131 -103 l 74 -181 q 125 -212 97 -199 q 183 -233 149 -224 q 258 -243 217 -243 q 475 -178 403 -243 q 547 31 547 -112 l 547 531 l 432 531 "},"h":{"ha":557,"x_min":51,"x_max":506,"o":"m 506 0 l 506 339 q 494 415 506 379 q 458 478 482 451 q 397 522 435 506 q 310 538 360 538 q 245 521 272 538 q 200 485 218 504 q 165 432 179 461 l 165 753 l 51 753 l 51 0 l 165 0 l 165 369 q 196 400 179 386 q 232 422 211 411 q 281 432 253 432 q 363 406 333 432 q 392 343 392 381 l 392 0 l 506 0 "},"i":{"ha":217,"x_min":51,"x_max":165,"o":"m 51 606 l 165 606 l 165 718 l 51 718 l 51 606 m 51 0 l 165 0 l 165 531 l 51 531 l 51 0 "},"j":{"ha":217,"x_min":-146,"x_max":165,"o":"m 51 606 l 165 606 l 165 718 l 51 718 l 51 606 m -104 -114 l -146 -206 q -119 -224 -135 -217 q -89 -236 -107 -231 q -47 -242 -71 -242 q 112 -169 58 -242 q 165 24 165 -96 l 165 531 l 51 531 l 51 7 q 24 -110 51 -78 q -46 -142 -4 -142 q -66 -137 -56 -142 q -85 -128 -76 -133 q -104 -114 -94 -122 "},"k":{"ha":508,"x_min":51,"x_max":496,"o":"m 354 524 l 165 290 l 165 753 l 51 753 l 51 0 l 165 0 l 165 125 l 265 250 l 381 0 l 496 0 l 336 338 l 488 524 l 354 524 "},"l":{"ha":217,"x_min":51,"x_max":165,"o":"m 51 0 l 165 0 l 165 753 l 51 753 l 51 0 "},"m":{"ha":897,"x_min":51,"x_max":846,"o":"m 846 0 l 846 339 q 834 413 846 378 q 799 476 822 449 q 738 521 775 504 q 650 538 700 538 q 586 523 614 538 q 539 490 558 508 q 507 453 519 471 q 489 426 494 435 q 428 503 469 469 q 315 538 386 538 q 247 522 275 538 q 201 486 218 506 q 174 450 183 467 q 165 432 165 433 l 165 531 l 51 531 l 51 0 l 165 0 l 165 369 q 197 400 179 386 q 234 421 213 411 q 281 431 256 431 q 363 406 333 431 q 392 343 392 382 l 392 0 l 506 0 l 506 369 q 540 400 522 386 q 577 422 556 411 q 625 432 599 432 q 705 403 678 432 q 732 343 732 375 l 732 0 l 846 0 "},"n":{"ha":557,"x_min":51,"x_max":506,"o":"m 506 0 l 506 339 q 494 413 506 378 q 459 476 482 449 q 401 521 436 504 q 318 538 365 538 q 249 521 278 538 q 201 485 221 504 q 165 432 179 461 l 165 531 l 51 531 l 51 0 l 165 0 l 165 369 q 199 400 181 386 q 237 422 214 411 q 288 432 260 432 q 363 404 336 432 q 390 343 390 376 l 392 0 l 506 0 "},"o":{"ha":583,"x_min":31,"x_max":553,"o":"m 286 92 q 223 105 250 92 q 178 141 196 118 q 153 194 161 164 q 144 258 144 225 q 153 327 144 294 q 181 385 163 360 q 227 424 199 410 q 296 439 256 439 q 359 425 332 439 q 403 388 386 411 q 430 335 421 365 q 439 269 439 304 q 402 142 439 192 q 286 92 365 92 m 286 -7 q 482 68 411 -7 q 553 269 553 143 q 535 377 553 328 q 485 462 518 426 q 403 517 451 497 q 296 538 356 538 q 184 517 233 538 q 101 460 135 497 q 49 372 67 424 q 31 258 31 321 q 49 151 31 200 q 100 67 67 101 q 181 13 133 32 q 286 -7 228 -7 "},"p":{"ha":599,"x_min":51,"x_max":568,"o":"m 165 531 l 51 531 l 51 -221 l 165 -221 l 165 85 q 203 39 179 58 q 253 7 222 21 q 325 -7 283 -7 q 403 10 361 -7 q 483 60 446 26 q 544 142 519 93 q 568 257 568 192 q 547 381 568 328 q 489 468 525 433 q 406 520 453 503 q 310 538 360 538 q 249 523 275 538 q 204 492 224 508 q 165 446 182 471 l 165 531 m 165 154 l 165 374 q 207 406 183 390 q 252 427 226 417 q 308 438 278 438 q 354 430 329 438 q 401 402 379 422 q 438 347 422 382 q 453 257 453 313 q 438 181 453 213 q 402 130 424 150 q 357 100 381 110 q 317 90 333 90 q 254 100 282 90 q 207 122 226 110 q 165 154 183 136 "},"q":{"ha":599,"x_min":31,"x_max":547,"o":"m 433 531 l 433 446 q 392 492 417 471 q 340 523 371 508 q 267 538 308 538 q 183 520 225 538 q 107 468 140 503 q 52 381 74 433 q 31 257 31 328 q 54 142 31 192 q 114 60 78 93 q 194 10 150 26 q 279 -7 239 -7 q 349 7 321 -7 q 397 39 378 21 q 433 85 419 58 l 433 -221 l 547 -221 l 547 531 l 433 531 m 433 374 l 433 154 q 390 122 414 136 q 342 100 371 110 q 282 90 314 90 q 240 100 264 90 q 195 130 217 110 q 159 181 174 150 q 144 257 144 213 q 160 347 144 313 q 199 402 176 382 q 245 430 221 422 q 288 438 269 438 q 344 427 318 438 q 390 406 371 417 q 433 374 414 390 "},"r":{"ha":351,"x_min":51,"x_max":342,"o":"m 342 411 l 342 526 q 325 532 333 529 q 309 537 318 535 q 292 539 300 539 q 235 515 258 539 q 196 463 211 490 q 165 386 178 428 l 165 531 l 51 531 l 51 0 l 165 0 l 165 310 q 203 367 183 342 q 241 407 219 389 q 283 425 263 425 q 304 423 294 425 q 322 418 314 421 q 342 411 332 414 "},"s":{"ha":474,"x_min":51,"x_max":422,"o":"m 394 404 l 394 500 q 357 522 379 513 q 308 538 338 531 q 236 544 278 544 q 174 534 207 544 q 115 503 142 524 q 69 455 88 483 q 51 390 51 426 q 70 317 51 344 q 118 273 89 290 q 180 246 147 256 q 242 225 213 236 q 290 198 271 214 q 308 154 308 182 q 284 103 308 122 q 203 85 260 85 q 144 91 171 85 q 96 106 117 97 q 51 126 71 114 l 51 28 q 99 7 74 15 q 149 -6 121 0 q 208 -12 176 -12 q 368 36 314 -12 q 422 154 422 85 q 403 238 422 206 q 356 289 385 269 q 294 318 326 308 q 232 337 261 328 q 184 357 203 346 q 165 390 165 368 q 186 428 165 410 q 236 446 207 446 q 300 439 271 446 q 350 425 329 432 q 394 404 375 415 "},"t":{"ha":363,"x_min":10,"x_max":353,"o":"m 10 419 l 99 419 l 99 182 q 138 47 99 100 q 264 -6 178 -6 q 305 -4 288 -6 q 333 0 322 -3 q 353 7 346 3 l 353 110 q 332 100 343 104 q 310 94 322 97 q 283 92 299 92 q 258 95 271 92 q 236 108 246 99 q 220 136 226 118 q 214 183 214 154 l 214 419 l 353 419 l 353 519 l 214 519 l 214 753 l 99 753 l 100 519 l 10 519 l 10 419 "},"u":{"ha":557,"x_min":51,"x_max":506,"o":"m 51 531 l 51 192 q 63 118 51 153 q 100 56 75 83 q 163 13 125 29 q 250 -3 200 -3 q 318 13 290 -3 q 363 47 346 28 q 392 99 382 69 l 392 3 l 506 3 l 506 531 l 392 531 l 392 165 q 357 133 376 147 q 318 111 340 121 q 268 101 296 101 q 198 124 231 101 q 165 197 165 147 l 165 531 l 51 531 "},"v":{"ha":532,"x_min":10,"x_max":522,"o":"m 406 531 l 272 163 l 140 531 l 10 531 l 211 0 l 335 0 l 522 531 l 406 531 "},"w":{"ha":771,"x_min":10,"x_max":761,"o":"m 638 531 l 533 175 l 431 531 l 346 531 l 231 175 l 139 531 l 10 531 l 158 0 l 276 0 l 386 343 l 485 0 l 596 0 l 761 531 l 638 531 "},"x":{"ha":507,"x_min":10,"x_max":497,"o":"m 368 531 l 253 360 l 139 531 l 10 531 l 189 265 l 10 0 l 138 0 l 253 164 l 368 0 l 497 0 l 318 258 l 497 531 l 368 531 "},"y":{"ha":564,"x_min":13,"x_max":554,"o":"m 53 -117 l 13 -208 q 40 -225 25 -218 q 75 -237 54 -232 q 124 -242 96 -242 q 191 -232 163 -242 q 241 -202 219 -222 q 279 -153 263 -182 q 311 -86 296 -124 l 554 531 l 431 531 l 296 169 l 136 531 l 13 531 l 235 15 l 203 -68 q 118 -142 175 -142 q 96 -138 107 -142 q 75 -129 85 -135 q 53 -117 64 -124 "},"z":{"ha":499,"x_min":51,"x_max":489,"o":"m 489 531 l 78 531 l 78 432 l 318 432 l 51 46 l 51 0 l 485 0 l 485 99 l 224 99 l 489 481 l 489 531 "},"{":{"ha":328,"x_min":31,"x_max":318,"o":"m 318 -242 l 318 -136 q 290 -133 306 -136 q 263 -122 275 -131 q 242 -94 250 -112 q 233 -47 233 -76 l 233 113 q 202 208 233 171 q 125 256 171 244 q 203 306 174 269 q 233 399 233 343 l 233 565 q 242 608 233 592 q 263 635 250 625 q 290 651 275 646 q 318 656 304 656 l 318 761 q 160 704 204 754 q 117 568 117 654 l 117 406 q 94 330 117 349 q 31 307 72 311 l 31 213 q 94 186 72 207 q 117 108 117 165 l 117 -57 q 165 -192 117 -143 q 318 -242 214 -242 "},"|":{"ha":218,"x_min":51,"x_max":167,"o":"m 51 -174 l 167 -174 l 167 828 l 51 828 l 51 -174 "},"}":{"ha":328,"x_min":10,"x_max":297,"o":"m 10 -136 l 10 -242 q 163 -192 114 -242 q 211 -57 211 -143 l 211 108 q 233 186 211 165 q 297 213 256 207 l 297 307 q 233 330 256 311 q 211 406 211 349 l 211 568 q 167 704 211 654 q 10 761 124 754 l 10 656 q 38 651 24 656 q 65 635 53 646 q 86 608 78 625 q 94 565 94 592 l 94 399 q 124 306 94 343 q 203 256 154 269 q 126 208 157 244 q 94 113 94 171 l 94 -47 q 86 -94 94 -76 q 65 -122 78 -112 q 38 -133 53 -131 q 10 -136 22 -136 "},"~":{"ha":556,"x_min":51,"x_max":504,"o":"m 504 390 l 408 390 q 397 337 406 354 q 367 319 389 319 q 324 331 344 319 q 283 355 304 342 q 238 379 263 368 q 183 390 214 390 q 122 376 147 390 q 82 338 97 361 q 59 286 67 315 q 51 229 51 257 l 146 229 q 156 283 146 267 q 189 299 165 299 q 226 288 207 299 q 266 264 244 276 q 314 240 288 251 q 374 229 340 229 q 431 242 407 229 q 472 276 456 254 q 495 328 488 299 q 504 390 503 357 "},"'":{"ha":224,"x_min":51,"x_max":172,"o":"m 51 753 l 51 500 l 172 500 l 172 753 l 51 753 "},"“":{"ha":404,"x_min":51,"x_max":464,"o":"m 353 500 l 353 599 q 370 663 353 632 q 408 717 388 693 q 464 767 433 743 l 353 767 q 293 719 318 744 q 253 665 271 696 q 235 599 235 635 l 235 500 l 353 500 m 169 500 l 169 599 q 185 663 169 632 q 221 717 201 693 q 272 767 243 743 l 161 767 q 106 719 131 744 q 68 665 85 696 q 51 599 51 635 l 51 500 l 169 500 "},"–":{"ha":557,"x_min":51,"x_max":506,"o":"m 51 264 l 506 264 l 506 364 l 51 364 l 51 264 "},"•":{"ha":386,"x_min":51,"x_max":335,"o":"m 194 458 q 139 447 165 458 q 93 417 113 436 q 63 372 74 397 q 51 315 51 346 q 63 261 51 286 q 93 217 74 236 q 139 186 113 197 q 194 175 165 175 q 249 186 224 175 q 294 217 275 197 q 324 261 313 236 q 335 315 335 286 q 324 372 335 346 q 294 417 313 397 q 249 447 275 436 q 194 458 224 458 "},"”":{"ha":406,"x_min":-57,"x_max":354,"o":"m 51 767 l 51 668 q 34 604 51 635 q -3 550 17 574 q -57 500 -28 524 l 51 500 q 110 549 85 522 q 151 602 132 572 q 169 668 169 632 l 169 767 l 51 767 m 236 767 l 236 668 q 219 604 236 635 q 183 550 203 574 q 132 500 160 524 l 243 500 q 299 549 274 522 q 337 602 319 572 q 354 668 354 632 l 354 767 l 236 767 "},"…":{"ha":807,"x_min":51,"x_max":756,"o":"m 635 0 l 756 0 l 756 114 l 635 114 l 635 0 m 343 0 l 464 0 l 464 114 l 343 114 l 343 0 m 51 0 l 172 0 l 172 114 l 51 114 l 51 0 "},"`":{"ha":371,"x_min":51,"x_max":319,"o":"m 183 796 l 51 796 l 204 611 l 319 611 l 183 796 "},"—":{"ha":821,"x_min":51,"x_max":769,"o":"m 51 264 l 769 264 l 769 364 l 51 364 l 51 264 "},"™":{"ha":544,"x_min":51,"x_max":493,"o":"m 493 699 l 454 699 l 368 513 l 289 699 l 246 699 l 246 456 l 281 456 l 281 643 l 361 456 l 375 456 l 463 643 l 463 456 l 493 456 l 493 699 m 221 699 l 51 699 l 51 668 l 119 668 l 119 456 l 156 456 l 156 668 l 221 668 l 221 699 "},"½":{"ha":1044,"x_min":61,"x_max":1001,"o":"m 919 342 q 892 281 919 310 q 831 224 864 253 q 769 165 797 196 q 742 100 742 135 l 742 53 l 1001 53 l 1001 111 l 814 111 q 852 164 824 140 q 910 213 881 188 q 963 271 940 239 q 986 347 986 303 q 952 426 986 396 q 863 457 918 457 q 801 445 829 457 q 757 417 774 433 l 757 360 q 808 387 778 378 q 863 396 839 396 q 902 385 885 396 q 919 342 919 374 m 210 858 l 150 858 q 124 833 139 846 q 95 812 111 822 q 61 794 79 801 l 61 738 q 108 753 85 743 q 144 769 132 763 l 144 469 l 210 469 l 210 858 m 331 0 l 843 867 l 725 867 l 214 0 l 331 0 "},"¼":{"ha":1029,"x_min":61,"x_max":997,"o":"m 890 442 l 715 194 l 715 142 l 885 142 l 885 53 l 951 53 l 951 142 l 997 142 l 997 200 l 951 200 l 951 442 l 890 442 m 794 200 l 885 331 l 885 200 l 794 200 m 210 858 l 150 858 q 124 833 139 846 q 95 812 111 822 q 61 794 79 801 l 61 738 q 108 753 85 743 q 144 769 132 763 l 144 469 l 210 469 l 210 858 m 331 0 l 843 867 l 725 867 l 214 0 l 331 0 "},"¾":{"ha":1043,"x_min":51,"x_max":1011,"o":"m 904 442 l 729 194 l 729 142 l 899 142 l 899 53 l 965 53 l 965 142 l 1011 142 l 1011 200 l 965 200 l 965 442 l 904 442 m 808 200 l 899 331 l 899 200 l 808 200 m 292 586 q 258 652 292 629 q 188 679 225 675 q 251 708 225 686 q 276 775 276 731 q 266 815 276 797 q 239 846 256 833 q 201 865 222 858 q 158 872 179 872 q 108 864 131 872 q 67 844 85 856 l 67 789 q 158 814 101 814 q 194 804 178 814 q 211 763 211 794 q 192 727 211 739 q 150 710 174 715 q 89 704 124 704 l 89 647 q 196 633 165 647 q 226 582 226 618 q 219 556 226 567 q 199 538 211 544 q 172 529 186 532 q 146 526 158 526 q 96 533 121 526 q 51 556 71 540 l 51 496 q 92 478 67 486 q 146 469 118 469 q 253 501 215 469 q 292 586 292 533 m 344 0 l 857 867 l 739 867 l 228 0 l 344 0 "},"®":{"ha":913,"x_min":51,"x_max":861,"o":"m 108 335 q 135 471 108 407 q 210 582 163 535 q 321 656 257 629 q 457 683 385 683 q 593 656 529 683 q 704 582 657 629 q 778 471 751 535 q 806 335 806 407 q 778 198 806 261 q 704 88 751 135 q 593 15 657 42 q 457 -12 529 -12 q 321 15 385 -12 q 210 88 257 42 q 135 198 163 135 q 108 335 108 261 m 51 336 q 83 178 51 251 q 170 50 115 104 q 299 -35 225 -4 q 457 -67 372 -67 q 615 -35 542 -67 q 744 50 689 -4 q 830 178 799 104 q 861 336 861 251 q 830 494 861 421 q 744 623 799 568 q 615 709 689 678 q 457 740 542 740 q 299 709 372 740 q 170 623 225 678 q 83 494 115 568 q 51 336 51 421 m 668 93 l 572 249 q 538 290 561 268 q 490 326 515 313 q 535 340 514 331 q 574 365 557 349 q 600 404 590 381 q 610 461 610 428 q 597 521 610 496 q 564 563 585 546 q 515 588 543 579 q 457 596 488 596 l 308 596 l 308 93 l 363 93 l 363 311 l 413 311 q 464 291 432 311 q 518 235 496 271 l 603 93 l 668 93 m 363 550 l 444 550 q 527 526 497 550 q 557 461 557 503 q 546 414 557 433 q 517 381 535 394 q 477 362 500 368 q 429 356 454 356 l 363 356 l 363 550 "},"©":{"ha":913,"x_min":51,"x_max":861,"o":"m 108 335 q 135 471 108 407 q 210 582 163 535 q 321 656 257 629 q 457 683 385 683 q 593 656 529 683 q 704 582 657 629 q 778 471 751 535 q 806 335 806 407 q 778 199 806 263 q 704 90 751 136 q 593 16 657 43 q 457 -11 529 -11 q 321 16 385 -11 q 210 90 257 43 q 135 199 163 136 q 108 335 108 263 m 51 336 q 83 178 51 251 q 170 50 115 104 q 299 -35 225 -4 q 457 -67 372 -67 q 615 -35 542 -67 q 744 50 689 -4 q 830 178 799 104 q 861 336 861 251 q 830 494 861 421 q 744 623 799 568 q 615 709 689 678 q 457 740 542 740 q 299 709 372 740 q 170 623 225 678 q 83 494 115 568 q 51 336 51 421 m 601 101 l 582 146 q 529 124 554 131 q 468 117 504 117 q 325 177 376 117 q 274 329 274 238 q 287 412 274 372 q 325 481 300 451 q 386 528 350 511 q 468 546 422 546 q 526 542 496 546 q 582 526 557 538 l 603 569 q 538 584 578 579 q 467 589 499 589 q 366 571 411 589 q 288 519 321 553 q 238 437 256 485 q 219 329 219 389 q 285 142 219 211 q 461 72 351 72 q 536 79 499 72 q 601 101 574 86 "},"\"":{"ha":404,"x_min":51,"x_max":353,"o":"m 235 753 l 235 500 l 353 500 l 353 753 l 235 753 m 51 753 l 51 500 l 169 500 l 169 753 l 51 753 "},"!":{"ha":224,"x_min":51,"x_max":172,"o":"m 51 0 l 172 0 l 172 119 l 51 119 l 51 0 m 51 192 l 172 192 l 172 753 l 51 753 l 51 192 "},"€":{"ha":743,"x_min":51,"x_max":692,"o":"m 51 390 l 122 390 q 121 369 121 379 q 121 349 121 360 l 121 314 l 51 314 l 51 226 l 139 226 q 184 125 153 169 q 258 50 215 81 q 355 3 301 19 q 468 -12 408 -12 q 596 1 542 -12 q 690 38 650 14 l 649 140 q 571 106 608 119 q 481 92 533 92 q 420 99 451 92 q 360 123 389 107 q 308 165 332 139 q 267 226 283 190 l 506 226 l 506 314 l 243 314 q 242 331 242 322 q 242 349 242 339 q 242 369 242 360 q 244 390 243 379 l 533 390 l 533 478 l 269 478 q 350 581 294 544 q 481 618 406 618 q 567 611 525 618 q 650 585 610 604 l 692 689 q 606 714 658 704 q 483 724 554 724 q 271 665 361 724 q 138 478 181 606 l 51 478 l 51 390 "},"ฦ":{"ha":636,"x_min":31,"x_max":585,"o":"m 210 113 l 210 293 q 215 345 210 325 q 228 379 221 365 q 246 404 235 394 l 161 474 q 193 504 174 490 q 237 525 210 515 q 304 535 264 535 q 364 527 335 535 q 415 503 393 519 q 449 463 436 488 q 463 404 463 438 l 463 -290 l 515 -290 q 550 -260 535 -275 q 574 -228 563 -246 q 585 -192 585 -211 l 585 432 q 558 523 585 483 q 490 589 532 563 q 399 628 449 615 q 301 642 349 642 q 175 615 226 642 q 92 557 124 589 q 31 474 54 521 q 43 462 31 472 q 71 439 56 451 q 113 404 89 424 q 99 375 104 392 q 90 340 93 360 q 86 293 86 319 l 88 135 q 86 116 88 124 q 74 107 85 108 l 32 107 l 32 0 l 110 0 q 183 30 157 0 q 210 113 210 60 "},"ฏ":{"ha":636,"x_min":31,"x_max":585,"o":"m 210 113 l 210 293 q 216 345 210 325 q 229 379 222 365 q 249 404 238 394 l 161 474 q 193 504 174 490 q 236 525 210 515 q 303 535 263 535 q 363 527 333 535 q 414 504 392 519 q 449 464 436 489 q 463 404 463 439 l 463 -107 q 450 -142 463 -129 q 413 -156 438 -156 q 376 -143 393 -156 q 345 -115 358 -131 q 324 -86 332 -100 q 315 -69 317 -72 l 264 -142 l 215 -78 q 164 -117 190 -100 q 110 -144 140 -132 q 46 -156 79 -156 l 46 -261 q 101 -250 71 -261 q 156 -225 131 -239 q 215 -189 185 -210 l 265 -251 l 315 -187 q 350 -225 332 -210 q 385 -251 365 -240 q 426 -262 404 -262 q 514 -242 482 -262 q 562 -193 546 -221 q 581 -137 578 -165 q 585 -94 585 -110 l 585 432 q 560 523 585 483 q 494 589 535 563 q 403 628 453 615 q 303 642 353 642 q 176 615 228 642 q 93 557 125 589 q 31 474 56 521 q 43 462 31 472 q 71 439 56 451 q 113 404 89 424 q 100 375 106 390 q 91 340 94 360 q 88 294 88 321 l 88 131 q 86 114 88 121 q 74 106 85 107 l 32 106 l 32 0 l 107 0 q 186 30 163 0 q 210 113 210 60 "},"ฎ":{"ha":636,"x_min":31,"x_max":585,"o":"m 394 -149 q 345 -138 368 -149 q 304 -114 322 -128 q 264 -79 283 -99 q 203 -118 238 -101 q 133 -144 174 -133 q 46 -156 93 -156 l 46 -262 q 133 -251 93 -262 q 203 -226 174 -240 q 264 -189 238 -211 q 310 -226 285 -211 q 360 -251 331 -240 q 421 -262 389 -262 q 510 -243 478 -262 q 560 -198 543 -224 q 581 -145 576 -172 q 585 -101 585 -118 l 585 432 q 558 523 585 483 q 488 589 531 563 q 395 628 446 615 q 297 642 344 642 q 175 615 225 642 q 93 557 125 589 q 31 474 56 521 q 43 462 31 472 q 71 439 56 451 q 113 404 89 424 q 100 375 106 392 q 91 340 94 360 q 88 293 88 319 l 88 133 q 86 115 88 122 q 74 106 85 107 l 32 106 l 32 0 l 97 0 q 181 24 153 0 q 210 113 210 47 l 210 293 q 215 345 210 325 q 228 379 221 365 q 246 404 235 394 l 161 474 q 193 504 174 490 q 235 525 210 515 q 299 535 261 535 q 359 528 329 535 q 412 506 389 521 q 449 465 435 490 q 463 404 463 440 l 463 -65 q 451 -128 463 -108 q 394 -149 439 -149 "},"เ":{"ha":258,"x_min":51,"x_max":228,"o":"m 51 628 l 51 113 q 81 24 51 49 q 153 0 111 0 l 228 0 l 228 107 l 186 107 q 174 116 175 108 q 172 135 172 124 l 172 628 l 51 628 "},"แ":{"ha":515,"x_min":51,"x_max":485,"o":"m 308 628 l 308 113 q 335 27 308 54 q 404 0 363 0 l 485 0 l 485 107 l 443 107 q 431 116 432 108 q 429 135 429 124 l 429 628 l 308 628 m 51 628 l 51 113 q 78 27 51 54 q 147 0 106 0 l 228 0 l 228 107 l 186 107 q 174 116 175 108 q 172 135 172 124 l 172 628 l 51 628 "},"ไ":{"ha":443,"x_min":0,"x_max":413,"o":"m 357 135 l 357 724 q 352 800 357 763 q 333 867 347 838 q 296 915 319 897 q 235 933 272 933 q 184 922 204 933 q 150 899 164 911 q 124 864 135 883 q 110 878 121 867 q 82 901 99 889 q 44 924 65 914 q 0 933 24 933 l 0 828 q 59 814 33 828 q 101 783 85 800 q 135 739 121 764 q 156 781 144 761 q 177 810 165 796 q 200 828 189 825 q 224 820 217 831 q 235 792 232 810 q 237 756 238 775 q 236 724 236 738 l 236 113 q 262 30 236 60 q 336 0 288 0 l 413 0 l 413 107 l 371 107 q 358 116 360 108 q 357 135 357 124 "},"ค":{"ha":640,"x_min":51,"x_max":589,"o":"m 172 292 l 172 432 q 215 506 172 478 q 319 535 257 535 q 425 506 382 535 q 468 432 468 476 l 468 0 l 589 0 l 589 432 q 566 519 589 481 q 506 585 543 558 q 419 627 468 613 q 319 642 371 642 q 219 626 267 642 q 133 584 171 611 q 74 518 96 557 q 51 432 51 479 l 51 0 l 172 0 l 172 188 q 211 217 188 203 q 259 238 231 228 q 325 247 288 247 l 325 367 q 265 355 293 367 q 217 329 238 343 q 172 292 192 313 "},"ฅ":{"ha":640,"x_min":51,"x_max":589,"o":"m 51 0 l 172 0 l 172 189 q 211 218 188 204 q 259 238 231 229 q 325 247 288 247 l 325 367 q 264 355 292 367 q 215 329 236 343 q 172 292 190 313 l 172 432 q 190 504 172 474 q 235 535 208 535 q 260 521 246 535 q 288 490 274 507 q 321 446 303 471 q 351 490 336 471 q 378 521 364 507 q 404 535 393 535 q 450 504 432 535 q 468 432 468 474 l 468 0 l 589 0 l 589 432 q 576 506 589 468 q 540 573 563 543 q 485 622 517 603 q 419 642 454 642 q 382 628 400 642 q 350 599 364 614 q 321 557 335 581 q 288 599 304 581 q 255 627 272 614 q 219 640 238 640 q 156 622 186 640 q 102 573 125 603 q 65 506 79 543 q 51 432 51 468 l 51 0 "},"ด":{"ha":633,"x_min":31,"x_max":582,"o":"m 360 10 l 360 115 q 342 103 353 108 q 318 95 332 99 q 285 92 304 92 q 218 113 244 92 q 177 166 192 133 q 157 240 163 199 q 151 321 151 281 q 168 423 151 382 q 209 489 185 464 q 261 524 233 514 q 313 535 289 535 q 365 529 339 535 q 413 510 392 524 q 448 474 435 496 q 461 419 461 453 l 461 0 l 582 0 l 582 432 q 560 523 582 483 q 501 589 539 563 q 415 628 464 615 q 313 642 367 642 q 210 623 260 642 q 119 565 160 604 q 55 465 79 525 q 31 321 31 404 q 48 186 31 247 q 98 81 65 125 q 177 13 131 38 q 282 -12 224 -12 q 317 -9 301 -12 q 342 -1 332 -6 q 360 10 353 4 "},"ต":{"ha":633,"x_min":31,"x_max":582,"o":"m 360 10 l 360 115 q 336 103 349 108 q 313 95 325 99 q 285 92 300 92 q 183 153 215 92 q 151 319 151 215 q 159 429 151 388 q 178 494 167 471 q 203 526 190 518 q 228 535 217 535 q 253 521 239 535 q 281 490 267 507 q 314 446 296 471 q 346 490 331 471 q 372 521 358 507 q 396 535 386 535 q 438 510 415 535 q 461 443 461 485 l 461 0 l 582 0 l 582 443 q 567 515 582 479 q 528 578 553 550 q 473 624 504 607 q 407 642 442 642 q 373 628 389 642 q 343 599 357 614 q 314 557 328 581 q 281 599 297 581 q 249 627 265 614 q 217 640 232 640 q 147 622 181 640 q 87 563 113 603 q 46 463 61 524 q 31 321 31 403 q 48 188 31 249 q 97 82 65 126 q 175 13 129 38 q 278 -12 221 -12 q 313 -9 297 -12 q 339 -1 328 -6 q 360 10 351 4 "},"ศ":{"ha":640,"x_min":51,"x_max":589,"o":"m 172 299 l 172 432 q 212 506 172 475 q 314 536 251 536 q 422 508 376 536 q 468 432 468 481 l 468 0 l 589 0 l 589 432 q 571 510 589 469 q 515 578 553 551 q 568 628 547 593 q 589 710 589 664 l 468 710 q 453 659 468 678 q 411 629 439 640 q 364 639 390 636 q 314 642 338 642 q 220 628 267 642 q 136 587 174 614 q 75 521 99 560 q 51 432 51 482 l 51 0 l 172 0 l 172 189 q 211 218 189 204 q 258 238 231 229 q 325 247 286 247 l 325 367 q 264 356 292 367 q 215 332 236 344 q 172 299 190 317 "},"ว":{"ha":574,"x_min":31,"x_max":543,"o":"m 74 179 l 31 71 q 83 29 51 47 q 151 1 111 14 q 250 -12 192 -12 q 366 10 313 -12 q 459 76 419 33 q 521 178 499 118 q 543 314 543 239 q 520 450 543 389 q 458 553 497 511 q 363 619 418 596 q 246 642 308 642 q 147 628 188 642 q 81 599 107 614 q 31 557 50 581 l 72 453 q 118 488 92 472 q 174 511 142 500 q 249 522 207 522 q 310 510 279 522 q 366 473 342 499 q 406 408 390 447 q 421 314 421 368 q 406 218 421 260 q 365 148 390 176 q 310 106 340 119 q 249 92 279 92 q 174 105 207 92 q 119 135 142 118 q 74 179 93 154 "},"อ":{"ha":629,"x_min":31,"x_max":599,"o":"m 31 418 l 149 418 q 179 476 158 451 q 227 517 197 499 q 306 535 257 535 q 428 478 379 535 q 476 314 476 421 q 435 148 476 204 q 306 92 393 92 q 203 124 243 92 q 156 213 164 157 q 176 233 153 233 l 265 232 l 265 339 l 118 339 q 54 314 76 339 q 32 231 32 289 q 52 131 32 176 q 108 54 72 86 q 194 5 144 22 q 306 -12 244 -12 q 422 8 368 -12 q 515 70 475 29 q 576 172 554 111 q 599 314 599 233 q 584 425 599 367 q 535 531 569 483 q 445 610 501 579 q 306 642 389 642 q 156 606 211 642 q 74 529 101 571 q 31 418 40 481 "},"ง":{"ha":549,"x_min":32,"x_max":518,"o":"m 32 429 l 136 0 l 232 0 q 334 24 283 0 q 426 89 385 47 q 492 188 467 131 q 518 314 518 246 q 490 451 518 393 q 416 549 463 510 q 310 608 369 589 q 189 628 251 628 l 189 521 q 268 508 231 521 q 335 469 306 496 q 381 404 364 443 q 397 314 397 365 q 381 223 397 261 q 341 158 365 185 q 289 119 317 132 q 236 107 261 107 l 154 429 l 32 429 "},"ฮ":{"ha":629,"x_min":31,"x_max":599,"o":"m 31 419 l 149 419 q 179 478 158 453 q 226 518 197 500 q 304 536 256 536 q 428 478 379 536 q 476 314 476 421 q 306 92 476 92 q 203 125 243 92 q 157 211 163 158 q 178 232 154 232 l 265 232 l 265 339 l 117 339 q 49 308 65 339 q 32 231 32 276 q 52 131 32 176 q 108 54 72 86 q 194 5 144 22 q 306 -12 244 -12 q 422 8 368 -12 q 515 70 475 29 q 576 172 554 111 q 599 314 599 233 q 573 459 599 388 q 489 579 547 531 q 549 626 521 592 q 576 710 576 661 l 461 710 q 445 656 461 676 q 401 628 429 636 q 351 640 376 638 q 304 642 326 642 q 221 632 257 642 q 156 607 185 622 q 108 572 128 592 q 74 531 88 551 q 31 419 40 482 "},"จ":{"ha":615,"x_min":25,"x_max":585,"o":"m 217 0 l 286 0 q 419 27 363 0 q 512 99 475 54 q 567 203 549 144 q 585 328 585 263 q 563 444 585 388 q 500 545 540 501 q 403 615 460 589 q 279 642 347 642 q 159 621 207 642 q 81 576 111 600 q 25 513 44 549 l 67 411 q 117 472 86 446 q 182 515 143 496 q 279 535 221 535 q 335 525 303 535 q 395 491 367 515 q 443 427 424 467 q 463 328 463 388 q 451 243 463 283 q 419 173 439 203 q 373 125 400 143 q 315 107 346 107 l 274 265 q 249 307 263 292 q 222 329 236 322 q 192 338 207 336 q 161 339 176 339 l 106 339 l 106 232 l 133 232 q 151 231 144 232 q 161 219 157 231 l 217 0 "},"บ":{"ha":613,"x_min":51,"x_max":561,"o":"m 257 -12 l 354 -12 q 444 9 406 -12 q 510 64 483 31 q 549 138 536 97 q 561 219 561 179 l 561 629 l 440 629 l 440 214 q 410 129 440 167 q 329 92 381 92 l 271 92 q 199 129 225 92 q 172 214 172 167 l 172 628 l 51 628 l 51 219 q 63 138 51 179 q 100 64 75 97 q 164 9 125 31 q 257 -12 203 -12 "},"ป":{"ha":613,"x_min":51,"x_max":561,"o":"m 250 -12 l 347 -12 q 443 9 403 -12 q 510 64 483 31 q 549 138 536 97 q 561 219 561 179 l 561 808 l 440 808 l 440 214 q 411 129 440 167 q 332 92 382 92 l 274 92 q 199 129 225 92 q 172 214 172 167 l 172 628 l 51 628 l 51 219 q 63 138 51 179 q 100 64 75 97 q 163 9 125 31 q 250 -12 200 -12 "},"ิ":{"ha":0,"x_min":-517,"x_max":-81,"o":"m -517 732 l -81 732 l -81 832 l -474 832 l -517 732 "},"ี":{"ha":0,"x_min":-517,"x_max":-81,"o":"m -517 732 l -81 732 l -81 917 l -203 917 l -203 836 l -474 836 l -517 732 "},"ึ":{"ha":0,"x_min":-517,"x_max":-81,"o":"m -211 838 q -205 852 -211 846 q -190 858 -199 858 q -176 852 -182 858 q -169 838 -169 846 q -176 823 -169 829 q -190 817 -182 817 q -205 823 -199 817 q -211 838 -211 829 m -517 732 l -190 732 q -152 740 -172 732 q -117 760 -132 747 q -91 793 -101 774 q -81 836 -81 813 q -87 875 -81 856 q -108 910 -94 894 q -143 935 -122 925 q -190 944 -164 944 q -260 920 -228 944 q -297 857 -292 896 q -298 847 -297 851 q -297 836 -299 842 l -474 836 l -517 732 "},"ื":{"ha":0,"x_min":-517,"x_max":-81,"o":"m -517 732 l -81 732 l -81 917 l -183 917 l -183 836 l -225 836 l -225 917 l -314 917 l -314 836 l -474 836 l -517 732 "},"ุ":{"ha":0,"x_min":-242,"x_max":-50,"o":"m -50 -329 l -50 -217 q -83 -132 -50 -161 q -172 -103 -117 -103 l -242 -103 l -242 -207 l -203 -207 q -181 -217 -189 -207 q -172 -240 -172 -228 l -172 -329 l -50 -329 "},"ู":{"ha":0,"x_min":-422,"x_max":-50,"o":"m -351 -242 q -344 -280 -351 -261 q -319 -312 -336 -299 q -275 -335 -303 -326 q -207 -343 -247 -343 q -125 -332 -156 -343 q -78 -303 -94 -321 q -56 -263 -61 -285 q -50 -222 -50 -242 l -50 -103 l -172 -103 l -172 -200 q -179 -231 -172 -222 q -203 -239 -186 -239 q -224 -231 -218 -239 q -231 -200 -231 -222 q -265 -129 -231 -156 q -344 -103 -300 -103 l -422 -103 l -422 -208 l -382 -208 q -360 -219 -368 -208 q -351 -242 -351 -229 "},"ฺ":{"ha":0,"x_min":-172,"x_max":-50,"o":"m -172 -218 l -50 -218 l -50 -103 l -172 -103 l -172 -218 "},"า":{"ha":508,"x_min":31,"x_max":457,"o":"m 31 576 l 31 469 q 79 501 53 486 q 131 524 101 514 q 192 535 160 535 q 242 527 217 535 q 289 502 268 519 q 323 457 310 485 q 336 390 336 429 l 336 0 l 457 0 l 457 404 q 435 507 457 463 q 376 581 413 551 q 294 626 340 611 q 199 642 247 642 q 129 631 160 642 q 76 608 99 621 q 31 576 51 593 "},"ๅ":{"ha":508,"x_min":31,"x_max":457,"o":"m 31 576 l 31 469 q 79 501 53 486 q 131 524 101 514 q 192 535 160 535 q 240 528 214 535 q 287 504 265 521 q 322 460 308 488 q 336 390 336 432 l 336 -290 l 388 -290 q 422 -260 407 -275 q 446 -228 435 -246 q 457 -192 457 -211 l 457 404 q 435 507 457 463 q 377 581 413 551 q 297 626 342 611 q 204 642 251 642 q 131 631 163 642 q 76 608 99 621 q 31 576 51 593 "},"ะ":{"ha":400,"x_min":51,"x_max":349,"o":"m 349 188 l 225 188 q 178 195 189 188 q 167 221 167 203 l 167 271 l 51 271 l 51 210 q 84 115 51 146 q 189 83 117 83 l 304 83 l 349 188 m 349 489 l 225 489 q 178 497 189 489 q 167 522 167 504 l 167 572 l 51 572 l 51 515 q 81 418 51 451 q 186 385 111 385 l 304 385 l 349 489 "},"ั":{"ha":0,"x_min":-358,"x_max":69,"o":"m 69 835 l -183 835 q -231 842 -219 835 q -242 868 -242 850 l -242 917 l -358 917 l -358 858 q -348 796 -358 821 q -319 757 -337 771 q -276 738 -301 743 q -222 732 -251 732 l 26 732 l 69 835 "},"๋":{"ha":0,"x_min":-242,"x_max":18,"o":"m -172 917 l -172 876 l -242 876 l -242 772 l -172 772 l -172 732 l -50 732 l -50 772 l 18 772 l 18 875 l -50 875 l -50 917 l -172 917 "},"้":{"ha":0,"x_min":-393,"x_max":28,"o":"m 28 835 l -182 836 q -201 844 -193 835 q -210 864 -210 853 q -227 901 -210 885 q -265 917 -244 917 l -393 917 l -393 813 l -343 813 q -326 808 -335 813 q -318 785 -318 803 q -299 745 -318 758 q -251 732 -279 732 l -14 732 l 28 835 "},"่":{"ha":0,"x_min":-172,"x_max":-50,"o":"m -172 917 l -172 732 l -50 732 l -50 917 l -172 917 "},"๊":{"ha":0,"x_min":-456,"x_max":28,"o":"m -276 872 q -292 894 -283 885 q -312 910 -300 903 q -339 917 -324 917 q -381 909 -360 917 q -418 887 -401 901 q -445 851 -435 872 q -456 803 -456 829 q -450 774 -456 788 q -437 751 -444 761 q -418 732 -429 740 l -308 732 q -331 751 -321 740 q -346 774 -339 761 q -353 803 -353 788 q -344 831 -353 818 q -325 844 -336 844 q -300 831 -304 844 q -296 803 -296 817 l -258 803 q -252 831 -258 818 q -228 844 -246 844 q -207 831 -214 844 q -200 803 -200 818 q -197 780 -200 792 q -187 757 -194 768 q -167 739 -179 746 q -135 732 -154 732 l -14 732 l 28 835 l -101 835 q -112 836 -108 835 q -117 849 -117 838 q -147 896 -117 875 q -214 917 -176 917 q -242 910 -229 917 q -261 894 -254 903 q -276 872 -271 885 "},"์":{"ha":0,"x_min":-324,"x_max":-82,"o":"m -201 732 l -201 756 q -190 797 -201 782 q -150 813 -179 813 l -125 813 l -82 917 l -182 917 q -237 904 -211 917 q -282 872 -262 892 q -312 827 -301 853 q -324 776 -324 801 l -324 732 l -201 732 "},"ํ":{"ha":0,"x_min":-307,"x_max":-50,"o":"m -222 858 q -210 888 -222 875 q -181 900 -199 900 q -151 888 -164 900 q -139 858 -139 875 q -151 828 -139 840 q -181 817 -164 817 q -210 828 -199 817 q -222 858 -222 840 m -307 858 q -269 769 -307 806 q -179 732 -232 732 q -129 742 -153 732 q -88 769 -106 751 q -60 809 -71 786 q -50 858 -50 832 q -60 908 -50 885 q -88 950 -71 932 q -129 978 -106 968 q -179 988 -153 988 q -228 978 -206 988 q -269 950 -251 968 q -297 908 -286 932 q -307 858 -307 885 "},"ษ":{"ha":613,"x_min":51,"x_max":603,"o":"m 315 288 l 440 288 l 439 213 q 412 128 438 165 q 333 92 386 92 l 275 92 q 199 130 225 92 q 172 218 172 168 l 172 628 l 51 628 l 51 219 q 66 129 51 171 q 107 56 81 88 q 172 6 133 24 q 257 -12 210 -12 l 354 -12 q 439 5 401 -12 q 503 53 476 22 q 544 127 529 85 q 560 219 558 169 l 561 288 l 603 288 l 603 376 l 561 376 l 561 628 l 439 628 l 440 376 l 315 376 l 315 288 "},"ฯ":{"ha":581,"x_min":31,"x_max":529,"o":"m 150 628 l 31 628 q 54 540 38 582 q 99 467 71 499 q 165 416 126 435 q 257 397 204 397 q 324 408 296 397 q 371 431 351 418 q 408 465 393 446 l 408 224 q 406 156 408 179 q 396 121 403 132 q 378 108 389 110 q 354 107 368 107 l 354 0 q 485 47 442 0 q 529 219 529 94 l 529 628 l 413 628 q 357 535 397 567 q 267 504 317 504 q 218 513 238 504 q 186 537 199 521 q 165 576 174 553 q 150 628 157 599 "},"๚":{"ha":775,"x_min":31,"x_max":724,"o":"m 150 628 l 31 628 q 54 540 38 582 q 98 467 71 499 q 164 416 125 435 q 253 397 203 397 q 323 408 293 397 q 372 431 353 418 q 408 465 394 446 l 408 236 q 406 158 408 185 q 397 120 403 132 q 380 108 390 108 q 354 107 369 107 l 354 0 q 444 16 410 0 q 498 60 479 32 q 523 129 517 89 q 529 219 529 169 l 529 628 l 413 628 q 356 535 397 567 q 264 504 315 504 q 217 513 236 504 q 186 537 199 521 q 165 576 174 553 q 150 628 157 599 m 603 0 l 724 0 l 724 628 l 603 629 l 603 0 "},"ร":{"ha":529,"x_min":51,"x_max":478,"o":"m 450 475 l 450 586 q 403 614 429 601 q 346 633 379 625 q 268 642 313 642 q 183 629 222 642 q 114 594 143 617 q 68 541 85 572 q 51 474 51 510 q 74 376 51 411 q 131 320 97 340 q 204 290 164 300 q 278 268 244 279 q 334 240 311 257 q 357 189 357 222 q 239 92 357 92 q 169 99 203 92 q 108 117 135 107 q 51 142 78 128 l 51 40 q 106 14 75 25 q 168 -5 132 3 q 250 -12 204 -12 q 365 6 321 -12 q 435 54 410 25 q 469 119 460 83 q 478 189 478 156 q 455 283 478 247 q 399 340 432 318 q 325 373 365 361 q 251 397 285 385 q 195 424 218 408 q 172 469 172 440 q 199 518 172 501 q 268 535 226 535 q 348 525 314 535 q 406 504 382 515 q 450 475 432 490 "},"ฐ":{"ha":614,"x_min":24,"x_max":583,"o":"m 435 -60 l 435 -146 q 428 -170 435 -157 q 397 -183 421 -183 q 363 -171 379 -183 q 332 -142 346 -158 q 310 -113 318 -126 q 301 -99 301 -100 l 251 -169 l 201 -99 q 167 -142 189 -124 q 118 -170 147 -157 q 46 -183 89 -183 l 46 -290 q 111 -280 82 -290 q 160 -256 140 -269 q 201 -219 183 -240 l 251 -278 l 301 -217 q 325 -254 310 -239 q 358 -279 338 -268 q 411 -290 379 -290 q 487 -274 458 -290 q 531 -234 515 -257 q 551 -187 546 -211 q 556 -150 556 -164 l 556 -60 l 435 -60 m 215 0 l 282 0 q 399 21 344 0 q 495 83 454 42 q 560 186 536 125 q 583 328 583 247 q 557 455 583 390 q 478 564 531 519 q 550 614 517 575 q 583 710 583 653 l 463 710 q 441 651 463 672 q 392 619 419 629 q 336 635 367 629 q 275 642 306 642 q 150 621 199 642 q 74 576 101 600 q 24 511 40 547 l 68 407 q 115 471 86 443 q 179 515 140 494 q 275 535 218 535 q 334 525 301 535 q 395 491 367 515 q 443 427 424 467 q 463 328 463 388 q 451 243 463 283 q 419 173 439 203 q 372 125 399 143 q 315 107 346 107 l 274 260 q 229 326 258 313 q 168 339 200 339 l 104 339 l 104 232 l 138 232 q 153 228 149 232 q 161 214 157 225 l 215 0 "},"ธ":{"ha":585,"x_min":31,"x_max":554,"o":"m 540 469 l 540 581 q 469 611 507 597 q 392 633 436 622 q 299 643 349 643 q 202 634 250 643 q 116 605 154 625 q 54 552 78 585 q 31 472 31 519 q 60 379 31 410 q 135 335 90 349 q 232 316 179 321 q 329 301 285 311 q 403 266 374 290 q 433 190 433 242 q 422 149 433 167 q 392 118 411 131 q 349 99 374 106 q 299 92 325 92 q 256 93 279 92 q 213 104 233 94 q 179 135 193 114 q 165 196 165 157 l 165 268 l 43 268 l 43 196 q 71 82 43 124 q 139 19 99 40 q 225 -7 179 -1 q 307 -12 271 -12 q 419 6 372 -12 q 497 52 467 24 q 540 117 526 81 q 554 189 554 153 q 524 310 554 267 q 450 376 494 354 q 353 404 406 397 q 256 417 300 411 q 181 433 211 422 q 151 472 151 443 q 167 509 151 496 q 204 528 182 522 q 252 535 226 535 q 299 536 278 536 q 397 526 351 536 q 474 503 442 515 q 540 469 511 488 "},"ญ":{"ha":1000,"x_min":31,"x_max":947,"o":"m 583 214 l 583 432 q 558 523 583 483 q 493 589 533 563 q 402 628 453 615 q 300 642 351 642 q 176 615 228 642 q 93 557 125 589 q 31 474 56 521 q 43 462 31 472 q 71 439 56 451 q 111 404 88 424 q 99 375 104 392 q 90 340 93 360 q 86 293 86 319 l 86 113 q 110 30 86 60 q 194 0 135 0 l 264 0 l 264 107 l 219 107 q 207 116 208 108 q 206 135 206 124 l 206 293 q 212 343 206 322 q 225 378 218 364 q 246 404 233 393 l 161 474 q 192 504 172 490 q 234 525 208 515 q 300 535 260 535 q 352 530 324 535 q 405 510 381 525 q 445 470 429 496 q 461 404 461 444 l 461 219 q 472 130 461 172 q 505 56 482 88 q 564 5 528 24 q 653 -14 600 -14 q 729 3 697 -14 q 782 42 761 21 q 822 99 807 67 l 822 89 q 777 -47 822 1 q 665 -94 732 -94 q 602 -84 629 -94 q 556 -60 575 -74 q 517 -25 533 -44 l 486 -96 q 540 -137 510 -119 q 604 -166 567 -153 q 690 -179 642 -179 q 779 -160 733 -179 q 863 -106 825 -142 q 924 -19 900 -71 q 947 101 947 33 l 944 628 l 824 628 l 824 175 q 790 140 810 156 q 750 116 774 126 q 696 106 726 106 q 615 128 646 106 q 583 214 583 151 "},"ท":{"ha":626,"x_min":51,"x_max":575,"o":"m 172 0 l 172 450 q 214 486 190 471 q 260 511 233 500 q 318 522 286 522 q 386 511 360 522 q 428 481 413 500 q 449 434 443 461 q 454 376 454 407 l 454 0 l 575 0 l 575 418 q 560 498 575 458 q 519 569 546 538 q 453 622 492 601 q 368 642 415 642 q 278 624 315 642 q 218 585 242 606 q 172 529 190 560 l 172 628 l 51 628 l 51 0 l 172 0 "},"ม":{"ha":626,"x_min":51,"x_max":575,"o":"m 51 628 l 51 0 l 172 0 l 172 99 q 219 43 192 68 q 281 5 243 22 q 371 -12 318 -12 q 459 9 421 -12 q 523 64 497 31 q 562 136 549 97 q 575 210 575 175 l 575 628 l 454 628 l 454 260 q 424 157 454 193 q 314 121 394 121 q 259 131 285 121 q 214 156 233 142 q 172 192 190 171 l 172 628 l 51 628 "},"น":{"ha":626,"x_min":51,"x_max":575,"o":"m 454 621 l 454 178 q 413 142 436 157 q 365 117 393 128 q 301 106 336 106 q 255 112 278 106 q 214 133 232 118 q 184 176 196 149 q 172 244 172 203 l 172 621 l 51 621 l 51 210 q 66 130 51 169 q 107 59 81 90 q 171 8 133 28 q 256 -12 208 -12 q 346 5 308 -12 q 407 43 383 22 q 454 99 435 68 l 454 0 l 575 0 l 575 621 l 454 621 "},"ณ":{"ha":996,"x_min":31,"x_max":944,"o":"m 583 251 l 583 432 q 556 528 583 489 q 485 593 528 568 q 391 630 442 618 q 293 642 340 642 q 174 615 224 640 q 93 557 125 589 q 31 474 56 521 q 43 462 31 472 q 71 439 56 451 q 111 404 88 424 q 99 375 104 392 q 90 340 93 360 q 86 293 86 319 l 86 113 q 97 53 86 75 q 126 19 108 31 q 166 3 144 7 q 208 0 188 0 l 264 0 l 264 107 l 222 107 q 208 116 211 108 q 206 135 206 124 l 206 293 q 212 342 206 321 q 225 378 218 364 q 246 404 233 393 l 161 474 q 190 504 172 490 q 232 525 206 515 q 296 535 258 535 q 351 529 322 535 q 406 509 381 524 q 447 469 431 494 q 463 404 463 443 l 463 210 q 471 134 463 174 q 500 62 479 94 q 555 8 521 29 q 639 -12 589 -12 q 726 5 692 -12 q 783 43 761 22 q 824 99 808 68 l 824 0 l 944 0 l 944 628 l 824 628 l 824 175 q 789 140 808 156 q 748 116 772 126 q 693 106 724 106 q 638 113 660 106 q 604 137 617 119 q 588 182 592 154 q 583 251 583 210 "},"ฌ":{"ha":997,"x_min":31,"x_max":946,"o":"m 585 0 l 585 99 q 624 43 599 68 q 680 6 644 22 q 768 -11 715 -11 q 849 10 815 -11 q 903 63 882 31 q 935 134 925 94 q 946 210 946 174 l 946 628 l 824 628 l 824 251 q 802 137 824 168 q 722 106 781 106 q 660 116 686 106 q 617 140 633 126 q 585 175 597 156 l 585 432 q 560 523 585 483 q 494 589 535 563 q 402 628 453 615 q 300 642 351 642 q 176 615 226 642 q 93 557 125 589 q 31 474 56 521 q 43 462 31 472 q 71 439 56 451 q 113 404 89 424 q 100 375 106 392 q 91 340 94 360 q 88 293 88 319 l 88 113 q 98 53 88 75 q 126 19 108 31 q 164 3 143 7 q 206 0 185 0 l 265 0 l 265 107 l 224 107 q 210 116 213 108 q 207 135 207 124 l 207 293 q 213 342 207 321 q 226 378 219 364 q 246 404 235 393 l 161 474 q 192 504 172 490 q 234 525 208 515 q 300 535 260 535 q 360 528 331 535 q 413 506 390 521 q 449 465 435 490 q 463 404 463 440 l 463 0 l 585 0 "},"ฒ":{"ha":994,"x_min":31,"x_max":943,"o":"m 822 628 l 822 251 q 801 136 822 168 q 721 104 781 104 q 661 115 686 104 q 618 139 636 125 q 582 175 597 154 l 582 443 q 568 515 582 479 q 531 578 554 550 q 475 624 507 607 q 407 642 443 642 q 376 628 392 642 q 346 599 360 614 q 314 557 331 581 q 278 599 294 581 q 246 627 263 614 q 217 640 229 640 q 147 622 181 640 q 87 563 113 603 q 46 463 61 524 q 31 321 31 403 q 49 183 31 244 q 100 78 67 121 q 181 11 133 35 q 285 -12 228 -12 q 317 -9 303 -12 q 340 -1 331 -6 q 360 10 351 4 l 360 115 q 336 103 349 108 q 313 95 325 99 q 285 92 300 92 q 217 113 243 92 q 176 169 190 135 q 156 243 161 203 q 151 321 151 283 q 159 431 151 389 q 178 495 167 472 q 203 526 190 518 q 228 535 217 535 q 253 521 239 535 q 281 490 267 507 q 314 446 296 471 q 344 490 329 471 q 372 521 357 507 q 397 535 386 535 q 441 509 421 535 q 461 443 461 483 l 461 0 l 582 0 l 582 101 q 626 44 600 69 q 686 5 650 22 q 775 -12 722 -12 q 854 8 822 -12 q 906 62 886 29 q 934 134 925 94 q 943 210 943 174 l 943 628 l 822 628 "},"ล":{"ha":578,"x_min":31,"x_max":526,"o":"m 406 0 l 526 0 l 526 390 q 512 494 526 447 q 467 573 497 540 q 390 624 438 606 q 276 642 343 642 q 169 623 214 642 q 96 582 124 604 q 42 524 63 557 l 85 418 q 133 476 106 451 q 193 517 157 499 q 276 535 229 535 q 374 502 342 535 q 406 413 406 469 l 406 383 q 389 374 404 378 q 351 368 376 371 q 278 365 325 365 q 192 354 236 365 q 113 319 149 343 q 53 257 76 294 q 31 168 31 219 q 87 33 31 79 q 238 -14 143 -14 q 276 -11 260 -14 q 303 -6 292 -8 q 324 3 315 -1 l 324 113 q 300 101 313 107 q 275 94 289 97 q 246 92 261 92 q 178 112 204 92 q 151 168 151 132 q 164 210 151 193 q 195 239 176 228 q 235 255 214 250 q 276 260 257 260 q 343 263 318 260 q 382 269 368 265 q 406 279 397 274 l 406 0 "},"ส":{"ha":585,"x_min":31,"x_max":533,"o":"m 407 0 l 529 0 l 529 390 q 508 510 529 458 q 449 592 488 563 q 510 639 486 610 q 533 710 533 668 l 413 710 q 400 664 413 682 q 356 633 388 646 q 279 642 322 642 q 172 624 217 642 q 99 583 126 606 q 44 525 65 558 l 88 418 q 136 476 108 451 q 196 517 160 499 q 279 535 232 535 q 374 502 342 535 q 407 413 407 469 l 407 383 q 383 374 400 378 q 341 367 368 369 q 267 364 314 364 q 183 353 225 364 q 107 318 140 342 q 52 257 74 294 q 31 168 31 219 q 47 88 31 122 q 92 31 63 54 q 160 -3 121 8 q 247 -14 200 -14 q 277 -11 263 -14 q 303 -6 292 -8 q 326 3 315 -1 l 325 114 q 301 103 314 108 q 276 95 290 99 q 247 92 263 92 q 180 112 206 92 q 154 168 154 132 q 165 206 154 189 q 192 234 175 222 q 228 253 208 246 q 267 260 247 260 q 335 263 308 260 q 378 269 363 265 q 407 279 396 274 l 407 0 "},"ห":{"ha":583,"x_min":51,"x_max":574,"o":"m 410 628 l 172 393 l 172 628 l 51 628 l 51 0 l 172 0 l 172 231 l 289 349 q 327 335 304 346 q 372 303 350 325 q 410 247 394 282 q 425 163 425 213 l 425 0 l 547 0 l 547 182 q 527 287 547 244 q 478 355 507 329 q 415 394 449 381 q 354 413 382 407 l 574 628 l 410 628 "},"ย":{"ha":592,"x_min":31,"x_max":540,"o":"m 31 189 q 43 113 31 149 q 85 49 56 76 q 161 4 114 21 q 278 -12 208 -12 q 401 8 351 -12 q 483 63 451 29 q 527 138 514 96 q 540 219 540 179 l 540 628 l 419 628 l 419 214 q 384 130 419 167 q 278 93 349 93 q 185 115 218 93 q 151 189 151 138 q 161 227 151 207 q 191 264 171 247 q 242 291 211 281 q 318 301 274 301 l 318 408 q 208 426 251 408 q 165 488 165 443 q 184 523 165 511 q 222 535 203 535 q 256 531 239 535 q 288 522 274 526 q 318 510 303 517 l 318 621 q 286 632 304 626 q 248 640 271 636 q 197 643 225 643 q 144 633 171 643 q 94 604 117 624 q 58 556 72 585 q 44 488 44 526 q 66 420 44 446 q 114 379 88 394 q 183 356 144 363 q 107 322 140 344 q 54 270 78 303 q 31 189 31 238 "},"พ":{"ha":775,"x_min":10,"x_max":765,"o":"m 190 0 l 283 0 l 388 404 l 490 0 l 585 0 l 765 628 l 646 628 l 529 222 l 426 628 l 349 628 l 244 222 l 128 628 l 10 628 l 190 0 "},"ฟ":{"ha":828,"x_min":10,"x_max":818,"o":"m 190 0 l 285 0 l 388 397 l 490 0 l 585 0 l 818 815 l 700 815 l 529 222 l 426 628 l 349 628 l 244 222 l 128 628 l 10 628 l 190 0 "},"ผ":{"ha":733,"x_min":51,"x_max":682,"o":"m 682 629 l 561 628 q 542 413 554 497 q 517 281 529 329 q 486 192 501 222 l 383 446 l 325 446 l 221 192 q 196 271 207 226 q 178 358 186 308 q 168 471 169 408 q 172 503 168 486 q 193 521 175 521 l 238 521 l 238 628 l 165 628 q 79 583 107 628 q 51 472 51 539 q 69 292 51 378 q 107 142 86 207 q 164 0 132 65 l 243 0 l 356 265 l 468 0 l 549 0 q 608 164 581 69 q 653 361 632 244 q 682 629 675 478 "},"ฝ":{"ha":732,"x_min":51,"x_max":681,"o":"m 681 815 l 558 815 q 547 517 558 636 q 521 325 535 397 q 485 192 506 239 l 382 446 l 324 446 l 221 192 q 194 269 206 225 q 176 357 183 306 q 168 471 168 408 q 172 504 168 488 q 192 521 175 521 l 238 521 l 238 628 l 161 628 q 77 583 103 628 q 51 472 51 538 q 69 294 51 378 q 107 143 86 210 q 163 0 132 67 l 243 0 l 356 265 l 468 0 l 549 0 q 614 200 585 82 q 660 453 639 301 q 681 815 681 606 "},"ฬ":{"ha":828,"x_min":11,"x_max":821,"o":"m 193 0 l 288 0 l 389 397 l 493 0 l 588 0 l 728 489 q 736 517 731 496 q 740 557 742 538 q 726 602 738 583 q 699 632 714 621 q 660 654 682 646 q 740 683 704 663 q 796 732 771 701 q 821 815 821 763 l 699 815 q 674 743 699 774 q 619 693 649 713 q 542 654 585 669 q 582 628 564 643 q 610 594 597 614 q 624 549 624 575 q 618 515 624 531 l 531 222 l 429 628 l 350 628 l 247 222 l 131 628 l 11 628 l 193 0 "},"ฉ":{"ha":633,"x_min":31,"x_max":582,"o":"m 89 231 l 89 189 q 134 43 89 99 q 263 -12 179 -12 q 346 5 310 -12 q 408 43 382 22 q 461 99 438 68 l 461 0 l 582 0 l 582 390 q 512 574 582 506 q 313 642 442 642 q 208 628 254 642 q 131 599 163 614 q 63 556 93 579 l 104 456 q 167 494 132 478 q 233 522 194 510 q 313 535 271 535 q 383 522 354 535 q 428 486 411 508 q 453 435 446 464 q 461 376 461 407 l 461 178 q 413 142 439 157 q 358 117 389 128 q 292 106 328 106 q 228 126 250 106 q 206 210 206 147 l 206 249 q 182 335 206 304 q 110 367 158 367 l 31 367 l 31 260 l 71 260 q 86 251 83 260 q 89 231 89 242 "},"ข":{"ha":536,"x_min":31,"x_max":485,"o":"m 193 210 l 193 265 q 198 299 193 282 q 210 331 203 317 q 226 357 218 346 q 239 374 233 368 q 275 424 260 394 q 290 488 290 453 q 248 589 290 550 q 118 628 206 628 l 31 628 l 31 524 l 118 524 q 157 513 144 524 q 169 488 169 503 q 158 460 169 476 q 138 432 146 443 q 96 364 118 404 q 74 265 74 324 l 74 210 q 83 128 74 168 q 114 56 92 88 q 173 6 136 25 q 265 -12 210 -12 q 374 6 332 -12 q 441 56 417 25 q 475 128 465 88 q 485 210 485 168 l 485 628 l 364 628 l 364 210 q 344 128 364 164 q 276 92 325 92 q 211 124 229 92 q 193 210 193 157 "},"ฃ":{"ha":536,"x_min":31,"x_max":485,"o":"m 193 210 l 193 267 q 199 306 193 288 q 215 340 206 325 q 233 365 224 354 q 247 381 242 375 q 284 431 268 401 q 300 503 300 461 q 290 558 300 535 q 265 597 281 582 q 230 620 249 613 q 194 628 211 628 q 156 619 174 628 q 126 599 139 610 q 100 571 111 586 q 78 599 89 586 q 56 619 68 610 q 31 628 43 628 l 31 524 q 56 516 44 524 q 76 500 67 508 q 96 478 86 490 q 113 496 104 488 q 128 510 119 503 q 144 522 138 518 q 172 522 160 529 q 183 500 183 515 q 165 461 183 479 q 138 431 147 443 q 91 358 110 396 q 72 269 72 319 l 72 210 q 82 128 72 168 q 115 56 92 88 q 177 6 138 25 q 278 -12 217 -12 q 377 7 338 -12 q 440 58 417 26 q 474 132 464 90 q 485 219 485 174 l 485 628 l 364 628 l 364 214 q 359 169 364 190 q 344 130 354 147 q 317 102 333 113 q 278 92 301 92 q 211 124 229 92 q 193 210 193 157 "},"ฑ":{"ha":640,"x_min":31,"x_max":589,"o":"m 186 0 l 186 174 l 186 196 q 192 248 186 215 q 208 317 197 281 q 235 390 219 353 q 274 456 251 426 q 326 503 297 485 q 389 522 354 522 q 444 491 421 522 q 468 376 468 460 l 468 0 l 589 0 l 589 418 q 578 494 589 454 q 546 566 567 533 q 494 620 525 599 q 425 642 464 642 q 363 626 390 642 q 317 592 336 611 q 276 543 293 569 q 249 614 276 593 q 192 635 222 635 q 156 626 172 635 q 126 606 139 617 q 100 578 111 593 q 78 606 89 593 q 55 626 67 617 q 31 635 43 635 l 31 531 q 57 524 44 531 q 78 508 69 517 q 96 486 88 499 q 117 510 106 499 q 136 527 126 519 q 154 535 146 535 q 175 526 167 535 q 183 507 183 518 q 165 458 183 486 q 124 390 146 431 q 84 293 103 349 q 65 163 65 238 l 65 0 l 186 0 "},"ฆ":{"ha":647,"x_min":31,"x_max":596,"o":"m 193 176 l 193 276 q 210 335 193 313 q 249 378 228 357 q 287 427 269 400 q 304 501 304 454 q 273 590 304 554 q 194 628 242 626 q 156 619 174 628 q 126 600 139 611 q 100 571 111 588 q 78 599 89 586 q 55 619 67 610 q 31 628 43 628 l 31 524 q 53 516 42 524 q 74 500 64 508 q 96 478 85 490 q 117 503 106 492 q 136 520 126 513 q 154 528 146 528 q 176 519 169 528 q 183 496 183 510 q 166 449 183 468 q 128 410 149 431 q 90 363 107 390 q 72 288 72 335 l 72 0 l 193 0 l 193 99 q 242 43 214 68 q 302 5 265 22 q 390 -12 339 -12 q 476 6 438 -12 q 540 55 514 24 q 581 128 567 86 q 596 218 596 171 l 596 628 l 475 628 l 475 251 q 440 137 475 168 q 346 106 404 106 q 282 116 310 106 q 235 140 254 126 q 193 176 211 156 "},"ช":{"ha":564,"x_min":31,"x_max":533,"o":"m 193 194 l 193 265 q 212 338 193 310 q 242 376 231 365 q 276 425 263 397 q 290 488 290 453 q 247 590 290 550 q 107 629 204 629 l 31 629 l 31 522 l 106 522 q 151 513 133 522 q 169 488 169 503 q 158 460 169 476 q 138 432 146 443 q 95 363 117 406 q 74 265 74 321 l 74 200 q 83 122 74 160 q 117 53 93 83 q 182 6 142 24 q 285 -12 222 -12 q 392 7 347 -12 q 465 59 436 26 q 506 135 493 92 q 519 228 519 179 q 503 333 519 292 q 468 400 488 375 q 432 435 449 425 q 413 446 415 444 q 436 462 417 447 q 477 512 456 476 q 516 606 499 547 q 533 753 533 664 l 413 753 q 406 654 413 700 q 386 574 399 608 q 356 519 374 539 q 315 499 338 499 l 315 392 q 375 348 351 392 q 399 231 399 304 q 393 184 399 208 q 375 139 388 160 q 341 105 363 118 q 286 92 319 92 q 213 119 233 92 q 193 194 193 147 "},"ซ":{"ha":564,"x_min":31,"x_max":533,"o":"m 294 -12 q 397 9 354 -12 q 467 65 440 31 q 507 142 494 99 q 519 229 519 185 q 503 335 519 293 q 468 401 488 376 q 432 435 449 425 q 413 446 415 444 q 436 462 417 447 q 477 512 456 476 q 516 606 499 547 q 533 753 533 664 l 413 753 q 406 654 413 700 q 388 574 400 608 q 357 519 375 539 q 315 499 339 499 l 315 392 q 375 347 351 392 q 399 229 399 303 q 393 185 399 208 q 376 140 388 161 q 344 106 364 119 q 294 93 324 93 q 215 119 236 93 q 193 194 193 146 l 193 269 q 211 336 193 310 q 238 374 229 363 q 279 426 260 399 q 299 501 299 454 q 271 591 299 554 q 194 628 243 628 q 156 619 172 628 q 126 599 139 610 q 100 571 111 586 q 78 599 89 586 q 56 619 68 610 q 31 628 43 628 l 31 524 q 51 517 40 524 q 72 501 61 510 q 96 479 83 492 q 114 499 104 489 q 131 514 121 506 q 147 525 140 522 q 172 522 161 531 q 183 500 183 514 q 178 478 183 489 q 164 459 172 468 q 147 442 156 450 q 135 428 139 433 q 90 353 107 394 q 74 265 74 313 l 74 200 q 83 122 74 160 q 116 53 92 83 q 183 6 140 24 q 294 -12 226 -12 "},"โ":{"ha":332,"x_min":97,"x_max":468,"o":"m 125 579 l 125 113 q 151 30 125 60 q 219 0 178 0 l 301 0 l 301 106 l 260 106 q 247 115 249 107 q 246 133 246 122 l 246 579 q 242 654 246 622 q 232 709 238 686 q 222 750 226 732 q 218 785 218 768 q 253 819 218 810 q 361 828 288 828 l 468 828 l 468 933 l 301 933 q 148 897 199 933 q 97 797 97 860 q 101 758 97 778 q 111 713 106 738 q 121 655 117 688 q 125 579 125 622 "},"ใ":{"ha":424,"x_min":0,"x_max":393,"o":"m 338 138 l 338 544 q 342 617 338 590 q 351 663 346 643 q 360 702 356 683 q 364 753 364 721 q 348 841 364 804 q 303 901 332 878 q 238 936 275 925 q 158 947 200 947 q 88 932 118 947 q 39 899 58 917 q 0 851 15 878 l 40 749 q 71 794 54 774 q 108 826 86 811 q 157 840 129 840 q 223 815 203 840 q 243 753 243 789 q 239 712 243 732 q 229 668 235 692 q 219 615 224 644 q 215 544 215 586 l 215 113 q 242 30 215 60 q 314 0 268 0 l 393 0 l 393 110 l 351 110 q 339 119 340 111 q 338 138 338 126 "},"็":{"ha":0,"x_min":-497,"x_max":-111,"o":"m -242 974 l -353 972 q -405 965 -379 972 q -451 944 -431 958 q -485 905 -472 929 q -497 844 -497 881 q -487 794 -497 815 q -460 760 -476 774 q -422 739 -443 746 q -381 732 -401 732 q -344 738 -360 732 q -318 753 -329 744 q -297 775 -306 763 q -278 753 -289 763 q -256 738 -268 744 q -228 732 -243 732 q -180 742 -201 732 q -143 770 -158 753 q -119 810 -128 788 q -111 856 -111 832 l -200 856 q -210 819 -200 836 q -242 803 -221 803 q -260 810 -253 803 q -271 829 -267 818 q -279 856 -276 840 l -311 856 q -322 829 -315 840 q -340 810 -329 818 q -367 803 -350 803 q -398 817 -387 803 q -408 844 -408 832 q -394 882 -408 864 q -339 900 -381 900 l -242 900 q -186 904 -210 900 q -146 914 -162 908 q -111 928 -126 919 l -111 1039 q -146 1007 -126 1022 q -187 984 -162 994 q -242 974 -211 974 "},"ำ":{"ha":508,"x_min":-307,"x_max":457,"o":"m -222 860 q -210 889 -222 876 q -181 901 -199 901 q -151 889 -164 901 q -139 860 -139 876 q -151 830 -139 842 q -181 818 -164 818 q -210 830 -199 818 q -222 860 -222 842 m -307 860 q -269 769 -307 807 q -179 732 -232 732 q -129 742 -153 732 q -88 770 -106 753 q -60 810 -71 788 q -50 860 -50 833 q -60 910 -50 886 q -88 951 -71 933 q -129 978 -106 968 q -179 989 -153 989 q -228 978 -206 989 q -269 951 -251 968 q -297 910 -286 933 q -307 860 -307 886 m 31 576 l 31 469 q 79 501 53 486 q 131 524 101 514 q 192 535 160 535 q 242 527 217 535 q 289 502 268 519 q 323 457 310 485 q 336 390 336 429 l 336 0 l 457 0 l 457 404 q 435 507 457 463 q 376 581 413 551 q 294 626 340 611 q 199 642 247 642 q 129 631 160 642 q 76 608 99 621 q 31 576 51 593 "},"ๆ":{"ha":592,"x_min":31,"x_max":540,"o":"m 540 -192 l 540 460 q 531 523 540 490 q 501 582 521 556 q 453 625 482 608 q 385 642 424 642 q 352 628 369 642 q 319 599 335 614 q 285 557 303 581 q 251 599 268 581 q 219 628 236 614 q 188 642 203 642 q 124 627 153 642 q 74 588 94 613 q 42 529 53 563 q 31 460 31 496 q 50 362 31 399 q 93 304 69 325 q 157 269 121 279 l 197 368 q 174 389 183 375 q 158 417 165 400 q 151 460 151 435 q 168 518 151 501 q 200 535 185 535 q 222 519 208 535 q 250 486 236 504 q 285 438 265 464 q 318 486 303 464 q 347 519 332 504 q 369 535 361 535 q 419 432 419 535 l 419 -290 l 471 -290 q 506 -260 490 -275 q 529 -228 518 -246 q 540 -192 540 -211 "},"๎":{"ha":0,"x_min":-358,"x_max":-68,"o":"m -335 732 l -219 732 q -231 742 -225 736 q -238 755 -235 747 q -242 774 -242 763 q -217 816 -242 806 q -162 826 -192 826 q -156 885 -162 863 q -136 921 -149 908 q -106 938 -124 933 q -68 942 -89 942 l -68 1006 q -179 985 -136 1006 q -222 919 -222 964 q -272 913 -247 919 q -315 891 -296 906 q -347 853 -335 876 q -358 800 -358 831 q -350 759 -358 776 q -335 732 -342 742 "},"๏":{"ha":660,"x_min":51,"x_max":608,"o":"m 329 451 q 402 437 368 451 q 461 397 436 422 q 501 338 486 372 q 515 265 515 304 q 501 194 515 228 q 461 134 486 160 q 402 94 436 108 q 329 79 368 79 q 258 94 292 79 q 198 134 224 108 q 158 194 172 160 q 143 265 143 228 q 158 338 143 304 q 198 397 172 372 q 258 437 224 422 q 329 451 292 451 m 329 543 q 222 522 272 543 q 133 463 171 500 q 74 374 96 425 q 51 265 51 324 q 74 156 51 207 q 133 68 96 106 q 222 9 171 31 q 329 -12 272 -12 q 438 9 388 -12 q 527 68 489 31 q 587 156 565 106 q 608 265 608 207 q 587 374 608 324 q 527 463 565 425 q 438 522 489 500 q 329 543 388 543 m 329 392 q 280 382 303 392 q 240 355 257 372 q 213 315 222 338 q 203 265 203 292 q 240 176 203 213 q 329 139 276 139 q 378 149 356 139 q 419 176 401 158 q 446 216 436 193 q 456 265 456 239 q 419 355 456 318 q 329 392 382 392 "},"๐":{"ha":628,"x_min":31,"x_max":597,"o":"m 151 265 q 164 333 151 301 q 199 388 176 364 q 251 425 221 411 q 314 439 281 439 q 377 425 347 439 q 428 388 407 411 q 463 333 450 364 q 476 265 476 301 q 463 197 476 229 q 428 142 450 165 q 377 104 407 118 q 314 90 347 90 q 251 104 281 90 q 199 142 221 118 q 164 197 176 165 q 151 265 151 229 m 31 264 q 53 155 31 206 q 113 67 75 104 q 201 8 150 29 q 308 -14 251 -14 q 419 8 367 -14 q 510 67 471 29 q 574 155 550 104 q 597 264 597 206 q 574 373 597 322 q 513 462 551 424 q 422 522 474 500 q 313 544 371 544 q 203 522 254 544 q 114 462 153 500 q 53 373 75 424 q 31 264 31 322 "},"๑":{"ha":626,"x_min":31,"x_max":596,"o":"m 243 50 l 213 -51 q 240 -53 219 -53 q 267 -53 261 -53 q 374 -35 317 -53 q 481 19 432 -17 q 563 112 531 56 q 596 244 596 168 q 573 371 596 315 q 510 465 550 426 q 418 524 471 503 q 304 544 365 544 q 195 525 246 544 q 108 474 144 506 q 51 401 72 442 q 31 315 31 360 q 48 224 31 263 q 92 159 65 185 q 152 121 119 133 q 214 108 185 108 q 295 124 264 108 q 344 161 326 139 q 367 208 361 183 q 374 250 374 232 l 374 294 l 253 294 l 253 268 q 245 230 253 244 q 214 215 238 215 q 173 241 194 215 q 151 315 151 267 q 160 353 151 332 q 187 392 168 374 q 234 424 206 411 q 304 438 263 438 q 369 426 339 438 q 424 390 400 414 q 461 329 447 365 q 475 244 475 293 q 453 161 475 197 q 397 100 431 125 q 323 63 363 75 q 249 50 283 50 l 243 50 "},"๓":{"ha":767,"x_min":31,"x_max":736,"o":"m 522 439 q 589 393 564 439 q 614 268 614 347 q 602 160 614 210 q 576 75 590 111 q 540 0 561 33 l 657 0 q 696 71 679 31 q 724 156 711 106 q 736 268 736 206 q 721 385 736 333 q 680 472 706 436 q 618 526 654 507 q 540 544 582 544 q 469 522 499 544 q 422 474 440 500 q 388 404 400 443 q 353 474 375 443 q 304 522 333 500 q 233 544 275 544 q 82 471 133 544 q 31 268 31 397 q 53 147 31 199 q 110 58 75 94 q 190 4 146 22 q 276 -14 233 -14 q 306 -10 293 -14 q 329 -3 319 -7 q 347 8 340 3 l 347 107 q 325 99 338 103 q 278 92 301 92 q 185 141 218 92 q 153 268 153 190 q 162 351 153 318 q 184 403 171 383 q 213 431 197 424 q 244 439 229 439 q 307 383 285 439 q 329 232 329 328 l 438 232 q 460 388 438 336 q 522 439 482 439 "},"๙":{"ha":897,"x_min":31,"x_max":846,"o":"m 724 822 l 724 653 q 715 535 724 581 q 681 490 707 490 q 643 506 663 490 q 601 539 624 521 q 550 572 578 557 q 489 588 522 588 q 408 554 440 588 q 368 467 376 521 q 311 520 344 496 q 225 544 278 544 q 160 525 194 544 q 97 470 126 506 q 49 383 68 435 q 31 268 31 332 q 49 157 31 208 q 100 68 68 106 q 173 9 132 31 q 258 -12 214 -12 q 308 -4 292 -12 q 332 10 325 4 l 332 113 q 310 101 321 107 q 264 92 288 92 q 181 142 211 92 q 151 268 151 192 q 161 351 151 318 q 185 406 171 385 q 215 435 199 426 q 244 443 232 443 q 303 416 278 443 q 336 360 328 389 l 439 0 l 556 0 q 494 219 517 139 q 461 335 472 299 l 439 411 q 438 425 438 415 q 453 465 438 450 q 488 481 468 479 q 524 467 506 482 q 565 434 542 453 q 617 400 588 415 q 688 385 647 385 q 770 410 739 385 q 818 476 801 436 q 840 563 835 515 q 846 653 846 610 l 846 822 l 724 822 "},"๒":{"ha":772,"x_min":10,"x_max":742,"o":"m 313 -12 l 533 -12 q 614 0 576 -12 q 680 38 651 13 q 725 101 708 63 q 742 190 742 139 l 742 340 q 733 410 742 374 q 707 477 725 447 q 660 527 689 507 q 589 547 631 547 q 551 538 568 547 q 524 518 535 529 q 500 490 510 506 q 479 518 492 506 q 453 538 468 529 q 417 547 438 547 q 356 531 381 547 q 317 491 332 514 q 294 442 301 468 q 288 399 288 417 q 307 301 288 336 q 358 248 326 265 q 428 226 389 231 q 506 221 467 221 l 506 326 q 469 328 490 326 q 431 336 449 329 q 400 358 413 343 q 388 399 388 372 q 401 441 388 422 q 438 460 414 460 q 461 451 450 460 q 481 432 472 443 q 499 404 490 419 q 518 432 508 419 q 538 451 526 443 q 563 460 549 460 q 592 448 581 460 q 610 418 604 436 q 619 379 617 400 q 621 340 621 358 l 621 193 q 590 114 621 136 q 524 92 560 92 l 342 92 q 308 97 326 92 q 275 116 290 103 q 249 152 260 129 q 239 210 239 175 l 239 604 q 226 672 239 635 q 186 743 213 710 q 121 799 160 776 q 31 821 82 821 l 10 821 l 10 715 q 68 707 46 715 q 103 684 90 699 q 119 650 115 669 q 124 608 124 631 l 124 190 q 142 101 124 139 q 188 38 160 63 q 249 0 215 13 q 313 -12 282 -12 "},"๔":{"ha":744,"x_min":31,"x_max":693,"o":"m 264 428 l 501 428 q 572 438 538 428 q 632 469 606 447 q 675 525 658 490 q 692 611 692 560 l 693 821 l 571 822 l 571 640 q 561 584 571 606 q 536 551 551 563 q 501 536 521 540 q 458 532 481 532 l 236 532 q 140 507 179 532 q 77 443 101 482 q 42 356 53 404 q 31 260 31 307 q 46 160 31 207 q 88 78 61 114 q 153 21 115 42 q 239 0 192 0 l 693 0 l 693 106 l 624 106 q 560 121 590 106 q 508 163 531 136 q 471 226 485 189 q 457 307 457 263 l 332 307 q 353 218 332 256 q 401 156 375 181 q 471 106 432 126 l 261 106 q 176 148 200 106 q 151 258 151 190 q 158 322 151 292 q 178 376 165 353 q 213 414 192 400 q 264 428 235 428 "},"๕":{"ha":746,"x_min":31,"x_max":694,"o":"m 350 557 q 362 586 350 574 q 392 599 374 599 q 421 586 408 599 q 433 557 433 574 q 422 529 433 540 q 396 515 411 518 l 392 515 q 362 527 374 515 q 350 557 350 539 m 268 561 q 272 532 268 542 l 233 532 q 140 507 179 532 q 77 442 101 482 q 42 354 53 403 q 31 258 31 306 q 46 165 31 211 q 88 82 61 118 q 154 23 115 46 q 240 0 193 0 l 694 0 l 694 106 l 618 106 q 565 121 593 106 q 513 163 536 136 q 474 226 489 189 q 458 307 458 263 l 333 307 q 355 218 333 256 q 403 156 376 181 q 474 106 433 126 l 260 106 q 177 149 201 106 q 153 258 153 192 q 160 322 153 292 q 181 376 167 353 q 217 414 196 400 q 268 428 239 428 l 510 428 q 581 438 547 428 q 640 472 615 449 q 680 530 665 494 q 694 617 694 565 l 694 822 l 572 822 l 572 663 q 560 580 572 607 q 511 538 547 553 q 515 561 515 547 q 479 649 515 613 q 392 685 443 685 q 304 649 340 685 q 268 561 268 613 "},"๖":{"ha":842,"x_min":10,"x_max":811,"o":"m 264 289 l 376 289 q 395 347 383 319 q 426 394 407 374 q 470 428 444 415 q 529 440 496 440 q 592 428 563 440 q 642 396 621 417 q 677 345 664 375 q 690 279 690 315 q 675 197 690 232 q 636 139 660 163 q 584 103 613 115 q 529 92 556 92 q 447 117 488 92 q 388 189 407 142 l 265 189 q 302 115 279 151 q 358 51 325 79 q 434 5 392 22 q 529 -12 476 -12 q 649 12 596 -12 q 738 76 701 36 q 792 169 774 117 q 811 279 811 222 q 793 379 811 331 q 739 465 775 428 q 650 525 703 503 q 529 547 597 547 q 442 533 478 547 q 385 503 407 519 q 342 460 358 483 q 300 596 322 531 q 244 712 278 661 q 162 792 211 763 q 39 822 113 822 l 10 822 l 10 715 q 101 690 64 715 q 165 613 138 665 q 215 479 192 560 q 264 289 238 399 "},"๘":{"ha":747,"x_min":31,"x_max":696,"o":"m 574 229 l 574 193 q 566 143 574 163 q 546 113 558 124 q 517 97 533 101 q 485 93 501 93 q 424 113 450 93 q 378 157 397 133 q 339 222 356 185 q 315 157 329 185 q 285 113 304 133 q 243 93 267 93 q 179 140 204 93 q 154 264 154 186 q 163 326 154 296 q 190 378 172 356 q 236 413 208 400 q 301 426 264 426 l 497 426 q 569 435 533 426 q 633 467 604 444 q 678 529 661 490 q 696 628 696 568 l 696 822 l 574 822 l 574 640 q 564 584 574 606 q 539 551 554 563 q 503 536 524 540 q 461 532 483 532 l 269 532 q 167 510 211 532 q 92 450 122 488 q 46 365 61 413 q 31 268 31 318 q 49 151 31 203 q 95 63 67 99 q 158 7 124 26 q 228 -12 193 -12 q 280 1 260 -12 q 314 29 300 14 q 339 71 329 47 q 374 29 353 47 q 419 1 392 14 q 485 -12 446 -12 q 581 3 540 -12 q 646 45 621 18 q 683 110 671 72 q 694 193 694 149 l 694 229 l 574 229 "},"๗":{"ha":1001,"x_min":31,"x_max":992,"o":"m 507 426 q 569 387 551 426 q 586 268 586 347 q 574 160 586 210 q 546 75 561 111 q 507 0 529 33 l 686 0 q 751 13 717 0 q 814 51 785 25 q 862 115 843 76 q 881 204 881 153 l 881 622 q 884 662 881 644 q 899 691 888 679 q 933 709 911 703 q 992 715 956 715 l 992 822 l 972 822 q 815 767 869 822 q 760 624 760 713 l 760 229 q 737 140 760 167 q 682 110 714 114 q 701 176 696 143 q 707 268 707 210 q 692 383 707 333 q 653 467 678 433 q 594 517 628 500 q 521 533 560 533 q 452 512 481 533 q 406 465 424 490 q 378 416 388 439 q 369 390 369 393 q 359 417 368 394 q 331 466 350 440 q 284 513 313 492 q 215 533 256 533 q 143 516 176 533 q 85 465 110 499 q 45 381 60 431 q 31 268 31 332 q 49 157 31 208 q 101 68 68 106 q 178 9 135 31 q 272 -12 222 -12 q 297 -10 283 -12 q 321 -3 310 -7 q 346 8 333 3 l 346 108 q 322 100 335 104 q 298 94 311 97 q 274 92 285 92 q 225 105 247 92 q 186 142 203 118 q 160 197 169 165 q 151 268 151 229 q 158 349 151 318 q 175 397 164 381 q 201 420 186 414 q 231 426 215 426 q 265 414 249 426 q 294 380 282 401 q 315 328 307 358 q 322 261 322 297 l 415 261 q 441 385 415 344 q 507 426 467 426 "},"ฤ":{"ha":636,"x_min":31,"x_max":585,"o":"m 207 136 l 207 293 q 213 342 207 321 q 226 378 219 364 q 246 404 235 393 l 161 474 q 192 504 172 490 q 233 525 207 515 q 294 535 258 535 q 356 529 325 535 q 410 509 386 524 q 448 469 433 494 q 463 404 463 443 l 463 -290 l 515 -290 q 550 -260 535 -275 q 574 -228 563 -246 q 585 -192 585 -211 l 585 432 q 560 523 585 483 q 494 589 535 563 q 401 628 453 615 q 297 642 350 642 q 176 615 226 642 q 94 557 126 589 q 31 474 57 521 q 43 462 31 472 q 71 439 56 451 q 113 404 89 424 q 100 375 106 392 q 91 340 94 360 q 88 293 88 319 l 88 113 q 115 27 88 54 q 190 0 142 0 l 265 0 l 265 107 l 221 108 q 208 117 210 108 q 207 136 207 125 "},"๛":{"ha":1031,"x_min":51,"x_max":979,"o":"m 329 -14 q 390 -1 364 -14 q 436 28 417 13 q 475 71 458 46 l 547 1 l 601 71 l 665 1 l 722 71 q 753 29 736 47 q 789 1 768 14 q 836 -12 810 -12 q 906 3 878 -12 q 949 39 933 18 q 972 83 965 60 q 979 122 979 106 q 972 161 979 144 q 958 189 965 178 q 938 210 949 201 l 819 210 q 840 186 831 199 q 856 160 849 175 q 863 129 863 146 q 853 103 863 117 q 817 90 843 90 q 781 103 797 90 q 750 131 764 115 q 719 172 735 149 l 660 101 l 596 171 l 540 100 l 468 169 q 429 131 451 147 q 385 103 410 115 q 329 92 360 92 q 271 103 299 92 q 222 135 243 114 q 187 188 200 157 q 174 257 174 218 q 185 332 174 299 q 218 389 197 365 q 266 426 239 413 q 324 439 293 439 q 389 421 364 439 q 428 381 414 403 q 451 324 443 356 l 569 324 q 531 433 560 385 q 500 474 518 454 q 457 508 482 493 q 399 533 432 524 q 324 543 365 543 q 206 519 257 543 q 120 456 154 496 q 69 365 86 417 q 51 257 51 313 q 72 157 51 206 q 128 70 92 108 q 216 9 165 32 q 329 -14 267 -14 "},"ก":{"ha":636,"x_min":31,"x_max":585,"o":"m 463 0 l 514 0 q 549 31 533 15 q 574 62 563 44 q 585 99 585 79 l 585 432 q 560 523 585 483 q 494 589 535 563 q 401 628 454 615 q 294 642 349 642 q 174 615 224 642 q 93 557 125 589 q 31 474 56 521 q 43 462 31 472 q 71 439 56 451 q 113 404 89 424 q 100 375 106 392 q 91 340 94 360 q 88 293 88 319 l 88 0 l 207 0 l 207 286 q 213 340 207 318 q 226 376 219 361 q 246 404 235 393 l 161 474 q 194 504 175 490 q 237 525 211 515 q 299 535 263 535 q 354 529 325 535 q 408 509 383 524 q 447 469 432 494 q 463 404 463 443 l 463 0 "},"ถ":{"ha":636,"x_min":31,"x_max":585,"o":"m 207 136 l 207 293 q 213 342 207 321 q 226 378 219 364 q 246 404 235 393 l 161 474 q 192 504 172 490 q 234 525 208 515 q 300 535 260 535 q 360 528 331 535 q 413 507 390 522 q 449 467 435 492 q 463 404 463 442 l 463 0 l 514 0 q 549 31 533 15 q 574 62 563 44 q 585 99 585 79 l 585 432 q 560 523 585 483 q 494 589 535 563 q 402 628 453 615 q 300 642 351 642 q 177 615 228 642 q 94 557 126 589 q 31 474 57 521 q 43 462 31 472 q 71 439 56 451 q 113 404 89 424 q 100 375 106 392 q 91 340 94 360 q 88 293 88 319 l 88 113 q 114 27 88 54 q 182 0 140 0 l 265 0 l 265 107 l 221 108 q 208 117 210 108 q 207 136 207 125 "},"ภ":{"ha":636,"x_min":31,"x_max":585,"o":"m 210 113 l 210 293 q 215 345 210 325 q 228 379 221 365 q 246 404 235 394 l 161 474 q 194 504 175 490 q 236 525 211 515 q 294 535 261 535 q 356 528 325 535 q 410 508 386 522 q 448 467 433 493 q 463 404 463 442 l 463 0 l 515 0 q 550 31 535 15 q 574 62 563 44 q 585 99 585 79 l 585 432 q 560 523 585 483 q 494 589 535 563 q 402 628 454 615 q 294 642 350 642 q 174 615 224 642 q 93 557 125 589 q 31 474 56 521 q 43 462 31 472 q 71 439 56 451 q 113 404 89 424 q 99 375 104 392 q 90 340 93 360 q 86 293 86 319 l 88 135 q 86 116 88 124 q 74 107 85 108 l 32 107 l 32 -1 l 114 0 q 183 30 156 0 q 210 113 210 60 "},"฿":{"ha":571,"x_min":51,"x_max":519,"o":"m 172 606 l 243 606 q 284 601 264 606 q 320 587 304 597 q 347 560 336 576 q 357 522 357 544 q 345 476 357 494 q 315 448 333 458 q 276 433 297 438 q 235 429 254 429 l 172 429 l 172 606 m 172 322 l 243 322 q 363 289 326 322 q 399 210 399 256 q 363 139 399 172 q 258 106 328 106 l 172 106 l 172 322 m 519 210 q 474 322 519 279 q 363 376 429 365 q 448 437 418 392 q 478 536 478 482 q 431 651 478 601 q 301 708 385 700 l 301 828 l 185 828 l 185 713 l 51 713 l 51 0 l 185 0 l 185 -115 l 301 -115 l 301 1 q 389 23 349 6 q 458 68 429 40 q 503 132 488 96 q 519 210 519 168 "}}}
